<svg width="16" height="16" viewBox="0 0 16 16" fill="none" xmlns="http://www.w3.org/2000/svg">
<path d="M3.75737 3.75737C4.31452 3.20022 4.97596 2.75826 5.70392 2.45673C6.43188 2.1552 7.2121 2 8.00004 2C8.78797 2 9.56819 2.1552 10.2962 2.45673C11.0241 2.75826 11.6855 3.20021 12.2427 3.75737C12.7999 4.31452 13.2418 4.97596 13.5433 5.70392C13.8449 6.43188 14.0001 7.2121 14.0001 8.00004C14.0001 8.78797 13.8449 9.56819 13.5433 10.2962C13.2418 11.0241 12.7999 11.6855 12.2427 12.2427C11.1175 13.3679 9.59135 14.0001 8.00004 14.0001C6.40873 14.0001 4.8826 13.3679 3.75737 12.2427C2.63214 11.1175 2 9.59135 2 8.00004C2 6.40873 2.63214 4.8826 3.75737 3.75737V3.75737Z" stroke="#F1663F" stroke-width="1.8" stroke-linecap="round"/>
<path d="M4 4L12 12" stroke="#F1663F" stroke-width="1.8" stroke-linecap="round"/>
</svg>
