<svg width="28" height="28" viewBox="0 0 28 28" fill="none" xmlns="http://www.w3.org/2000/svg">
<path d="M22.1667 17.5C19.5883 17.5 17.5 19.5883 17.5 22.1667C17.5 23.0417 17.745 23.87 18.1767 24.57C18.588 25.2612 19.1722 25.8335 19.8718 26.2303C20.5714 26.6272 21.3623 26.835 22.1667 26.8333C23.87 26.8333 25.3517 25.9233 26.1567 24.57C26.5883 23.87 26.8333 23.0417 26.8333 22.1667C26.8333 19.5883 24.745 17.5 22.1667 17.5ZM24.5817 21.665L22.0967 23.9633C21.9333 24.115 21.7117 24.1967 21.5017 24.1967C21.28 24.1967 21.0583 24.115 20.8833 23.94L19.7283 22.785C19.5656 22.6203 19.4743 22.3982 19.4743 22.1667C19.4743 21.9352 19.5656 21.713 19.7283 21.5483C20.0667 21.21 20.6267 21.21 20.965 21.5483L21.525 22.1083L23.3917 20.3817C23.7417 20.055 24.3017 20.0783 24.6283 20.4283C24.955 20.7783 24.9317 21.3267 24.5817 21.665Z" fill="black"/>
<path d="M25.6654 8.80602V9.33102C25.6654 9.97269 25.1404 10.4977 24.4987 10.4977H3.4987C2.85703 10.4977 2.33203 9.97269 2.33203 9.33102V8.79436C2.33203 6.12269 4.49036 3.96436 7.16203 3.96436H20.8237C23.4954 3.96436 25.6654 6.13436 25.6654 8.80602Z" fill="black"/>
<path d="M2.33203 13.4144V19.2011C2.33203 21.8728 4.49036 24.0311 7.16203 24.0311H14.4654C15.142 24.0311 15.7254 23.4594 15.667 22.7828C15.5037 20.9978 16.0754 19.0611 17.662 17.5211C18.3154 16.8794 19.1204 16.3894 19.9954 16.1094C21.4537 15.6428 22.8654 15.7011 24.1137 16.1211C24.2892 16.1824 24.4768 16.201 24.6609 16.1751C24.845 16.1493 25.0203 16.0798 25.1721 15.9725C25.3239 15.8652 25.4479 15.7232 25.5337 15.5583C25.6195 15.3934 25.6646 15.2103 25.6654 15.0244V13.4028C25.6654 12.7611 25.1404 12.2361 24.4987 12.2361H3.4987C2.85703 12.2478 2.33203 12.7728 2.33203 13.4144ZM9.33203 20.1228H6.9987C6.52036 20.1228 6.1237 19.7261 6.1237 19.2478C6.1237 18.7694 6.52036 18.3728 6.9987 18.3728H9.33203C9.81037 18.3728 10.207 18.7694 10.207 19.2478C10.207 19.7261 9.81037 20.1228 9.33203 20.1228Z" fill="black"/>
</svg>
