<svg width="41" height="34" viewBox="0 0 41 34" fill="none" xmlns="http://www.w3.org/2000/svg">
<path d="M40.9983 22.95C40.9983 29.0428 36.017 34 29.8946 34H21.3533C15.2309 34 10.2496 29.0428 10.2496 22.95C10.2496 16.8572 15.2309 11.9 21.3533 11.9H24.7698C25.2413 11.9 25.6239 12.2808 25.6239 12.75C25.6239 13.2192 25.2413 13.6 24.7698 13.6H21.3533C16.1721 13.6 11.9578 17.7956 11.9578 22.95C11.9578 28.1044 16.1721 32.3 21.3533 32.3H29.8946C35.0757 32.3 39.29 28.1044 39.29 22.95C39.29 19.6214 37.4895 16.5189 34.5923 14.8495C34.184 14.6149 34.044 14.0947 34.2814 13.6884C34.5154 13.2821 35.0365 13.1393 35.4481 13.3773C38.8715 15.3476 41 19.0145 41 22.9483L40.9983 22.95ZM6.40598 19.1505C3.50706 17.4828 1.70826 14.3786 1.70826 11.05C1.70826 5.8956 5.92254 1.7 11.1037 1.7H19.645C24.8262 1.7 29.0405 5.8956 29.0405 11.05C29.0405 16.2044 24.8262 20.4 19.645 20.4H16.2285C15.757 20.4 15.3744 20.7808 15.3744 21.25C15.3744 21.7192 15.757 22.1 16.2285 22.1H19.645C25.7674 22.1 30.7487 17.1428 30.7487 11.05C30.7487 4.9572 25.7674 0 19.645 0H11.1037C4.98129 0 0 4.9572 0 11.05C0 14.9821 2.12679 18.6507 5.55185 20.621C5.96013 20.8556 6.48286 20.7179 6.7186 20.3099C6.95604 19.9053 6.81597 19.3834 6.40769 19.1488L6.40598 19.1505Z" fill="url(#paint0_linear_940_1525)"/>
<defs>
<linearGradient id="paint0_linear_940_1525" x1="19.9875" y1="0.425" x2="20.34" y2="37.8265" gradientUnits="userSpaceOnUse">
<stop stop-color="#CDD99D"/>
<stop offset="1" stop-color="#1E2D27"/>
</linearGradient>
</defs>
</svg>
