<svg width="107" height="97" viewBox="0 0 107 97" fill="none" xmlns="http://www.w3.org/2000/svg">
<path opacity="0.8" d="M32.818 13.74C32.5886 14.2946 31.9601 14.8064 31.0547 15.068C29.0408 15.65 26.1031 17.072 23.5787 20.4934C21.063 23.9031 19.0439 29.1811 18.6374 37.3273C18.51 39.8792 20.5888 41.9167 23.0625 41.9167H43.8125C44.6409 41.9167 45.3125 42.5882 45.3125 43.4167V94C45.3125 94.8284 44.6409 95.5 43.8125 95.5H3C2.17157 95.5 1.5 94.8284 1.5 94V40.4167C1.5 31.7802 4.40589 21.9458 9.11049 14.295C13.8548 6.57959 20.1479 1.5 26.75 1.5H35.6375C36.7062 1.5 37.4321 2.58581 37.0236 3.57337L32.818 13.74ZM78.8249 37.3273C78.6975 39.8792 80.7763 41.9167 83.25 41.9167H104C104.828 41.9167 105.5 42.5882 105.5 43.4167V94C105.5 94.8284 104.828 95.5 104 95.5H63.1875C62.3591 95.5 61.6875 94.8284 61.6875 94V40.4167C61.6875 31.7802 64.5934 21.9458 69.298 14.295C74.0423 6.57959 80.3354 1.5 86.9375 1.5H95.825C96.8937 1.5 97.6196 2.58581 97.2111 3.57337L93.0055 13.74C92.7761 14.2946 92.1476 14.8064 91.2422 15.068C89.2283 15.65 86.2906 17.072 83.7662 20.4934C81.2505 23.9031 79.2314 29.1811 78.8249 37.3273Z" stroke="url(#paint0_linear_252_12031)" stroke-width="3"/>
<defs>
<linearGradient id="paint0_linear_252_12031" x1="35.952" y1="-16.1667" x2="51.6566" y2="66.3214" gradientUnits="userSpaceOnUse">
<stop stop-color="#1E2D27"/>
<stop offset="1" stop-color="#CDD99D"/>
</linearGradient>
</defs>
</svg>
