<svg width="64" height="64" viewBox="0 0 64 64" fill="none" xmlns="http://www.w3.org/2000/svg">
<path d="M56.465 25.705C55.5225 24.72 54.5475 23.705 54.18 22.8125C53.84 21.995 53.82 20.64 53.8 19.3275C53.7625 16.8875 53.7225 14.1225 51.8 12.2C49.8775 10.2775 47.1125 10.2375 44.6725 10.2C43.36 10.18 42.005 10.16 41.1875 9.82C40.2975 9.4525 39.28 8.4775 38.295 7.535C36.57 5.8775 34.61 4 32 4C29.39 4 27.4325 5.8775 25.705 7.535C24.72 8.4775 23.705 9.4525 22.8125 9.82C22 10.16 20.64 10.18 19.3275 10.2C16.8875 10.2375 14.1225 10.2775 12.2 12.2C10.2775 14.1225 10.25 16.8875 10.2 19.3275C10.18 20.64 10.16 21.995 9.82 22.8125C9.4525 23.7025 8.4775 24.72 7.535 25.705C5.8775 27.43 4 29.39 4 32C4 34.61 5.8775 36.5675 7.535 38.295C8.4775 39.28 9.4525 40.295 9.82 41.1875C10.16 42.005 10.18 43.36 10.2 44.6725C10.2375 47.1125 10.2775 49.8775 12.2 51.8C14.1225 53.7225 16.8875 53.7625 19.3275 53.8C20.64 53.82 21.995 53.84 22.8125 54.18C23.7025 54.5475 24.72 55.5225 25.705 56.465C27.43 58.1225 29.39 60 32 60C34.61 60 36.5675 58.1225 38.295 56.465C39.28 55.5225 40.295 54.5475 41.1875 54.18C42.005 53.84 43.36 53.82 44.6725 53.8C47.1125 53.7625 49.8775 53.7225 51.8 51.8C53.7225 49.8775 53.7625 47.1125 53.8 44.6725C53.82 43.36 53.84 42.005 54.18 41.1875C54.5475 40.2975 55.5225 39.28 56.465 38.295C58.1225 36.57 60 34.61 60 32C60 29.39 58.1225 27.4325 56.465 25.705ZM53.5775 35.5275C52.38 36.7775 51.14 38.07 50.4825 39.6575C49.8525 41.1825 49.825 42.925 49.8 44.6125C49.775 46.3625 49.7475 48.195 48.97 48.97C48.1925 49.745 46.3725 49.775 44.6125 49.8C42.925 49.825 41.1825 49.8525 39.6575 50.4825C38.07 51.14 36.7775 52.38 35.5275 53.5775C34.2775 54.775 33 56 32 56C31 56 29.7125 54.77 28.4725 53.5775C27.2325 52.385 25.93 51.14 24.3425 50.4825C22.8175 49.8525 21.075 49.825 19.3875 49.8C17.6375 49.775 15.805 49.7475 15.03 48.97C14.255 48.1925 14.225 46.3725 14.2 44.6125C14.175 42.925 14.1475 41.1825 13.5175 39.6575C12.86 38.07 11.62 36.7775 10.4225 35.5275C9.225 34.2775 8 33 8 32C8 31 9.23 29.7125 10.4225 28.4725C11.615 27.2325 12.86 25.93 13.5175 24.3425C14.1475 22.8175 14.175 21.075 14.2 19.3875C14.225 17.6375 14.2525 15.805 15.03 15.03C15.8075 14.255 17.6275 14.225 19.3875 14.2C21.075 14.175 22.8175 14.1475 24.3425 13.5175C25.93 12.86 27.2225 11.62 28.4725 10.4225C29.7225 9.225 31 8 32 8C33 8 34.2875 9.23 35.5275 10.4225C36.7675 11.615 38.07 12.86 39.6575 13.5175C41.1825 14.1475 42.925 14.175 44.6125 14.2C46.3625 14.225 48.195 14.2525 48.97 15.03C49.745 15.8075 49.775 17.6275 49.8 19.3875C49.825 21.075 49.8525 22.8175 50.4825 24.3425C51.14 25.93 52.38 27.2225 53.5775 28.4725C54.775 29.7225 56 31 56 32C56 33 54.77 34.2875 53.5775 35.5275ZM43.415 24.585C43.601 24.7707 43.7485 24.9913 43.8491 25.2341C43.9498 25.4769 44.0016 25.7372 44.0016 26C44.0016 26.2628 43.9498 26.5231 43.8491 26.7659C43.7485 27.0087 43.601 27.2293 43.415 27.415L29.415 41.415C29.2293 41.601 29.0087 41.7485 28.7659 41.8491C28.5231 41.9498 28.2628 42.0016 28 42.0016C27.7372 42.0016 27.4769 41.9498 27.2341 41.8491C26.9913 41.7485 26.7707 41.601 26.585 41.415L20.585 35.415C20.2097 35.0397 19.9989 34.5307 19.9989 34C19.9989 33.4693 20.2097 32.9603 20.585 32.585C20.9603 32.2097 21.4693 31.9989 22 31.9989C22.5307 31.9989 23.0397 32.2097 23.415 32.585L28 37.1725L40.585 24.585C40.7707 24.399 40.9913 24.2515 41.2341 24.1509C41.4769 24.0502 41.7372 23.9984 42 23.9984C42.2628 23.9984 42.5231 24.0502 42.7659 24.1509C43.0087 24.2515 43.2293 24.399 43.415 24.585Z" fill="#F1663F"/>
</svg>
