<svg width="18" height="18" viewBox="0 0 18 18" fill="none" xmlns="http://www.w3.org/2000/svg">
<path d="M16.6129 7.24219H12.1129C12.0355 7.24219 11.9723 7.30547 11.9723 7.38281V8.22656C11.9723 8.30391 12.0355 8.36719 12.1129 8.36719H16.6129C16.6902 8.36719 16.7535 8.30391 16.7535 8.22656V7.38281C16.7535 7.30547 16.6902 7.24219 16.6129 7.24219ZM14.2574 9.63281H12.1129C12.0355 9.63281 11.9723 9.69609 11.9723 9.77344V10.6172C11.9723 10.6945 12.0355 10.7578 12.1129 10.7578H14.2574C14.3348 10.7578 14.398 10.6945 14.398 10.6172V9.77344C14.398 9.69609 14.3348 9.63281 14.2574 9.63281ZM8.3916 5.66895H7.63047C7.52148 5.66895 7.43359 5.75684 7.43359 5.86582V10.2252C7.43359 10.2885 7.46348 10.3465 7.51445 10.3834L10.1318 12.2924C10.2197 12.3557 10.3428 12.3381 10.4061 12.2502L10.8578 11.6332V11.6314C10.9211 11.5436 10.9018 11.4205 10.8139 11.3572L8.58672 9.74707V5.86582C8.58848 5.75684 8.49883 5.66895 8.3916 5.66895Z" fill="#F1663F"/>
<path d="M14.1469 11.8458H13.1309C13.0324 11.8458 12.9393 11.8968 12.8865 11.9811C12.6633 12.3344 12.4031 12.6614 12.1043 12.9602C11.5893 13.4753 10.9899 13.8796 10.3236 14.1608C9.63282 14.4526 8.89982 14.6003 8.14396 14.6003C7.38634 14.6003 6.65333 14.4526 5.96427 14.1608C5.29806 13.8796 4.69864 13.4753 4.18361 12.9602C3.66857 12.4452 3.26427 11.8458 2.98302 11.1796C2.69122 10.4905 2.54357 9.75749 2.54357 8.99988C2.54357 8.24226 2.69122 7.51101 2.98302 6.82019C3.26427 6.15398 3.66857 5.55456 4.18361 5.03953C4.69864 4.52449 5.29806 4.12019 5.96427 3.83894C6.65333 3.54714 7.3881 3.39949 8.14396 3.39949C8.90157 3.39949 9.63458 3.54714 10.3236 3.83894C10.9899 4.12019 11.5893 4.52449 12.1043 5.03953C12.4031 5.33835 12.6633 5.66531 12.8865 6.01863C12.9393 6.103 13.0324 6.15398 13.1309 6.15398H14.1469C14.2682 6.15398 14.3455 6.02742 14.291 5.92019C13.1449 3.64031 10.8211 2.15847 8.22657 2.12859C4.42794 2.08113 1.27267 5.1907 1.26564 8.98582C1.25861 12.788 4.34005 15.8729 8.1422 15.8729C10.7701 15.8729 13.1326 14.3858 14.291 12.0796C14.3455 11.9723 14.2664 11.8458 14.1469 11.8458Z" fill="#F1663F"/>
</svg>
