<svg width="48" height="48" viewBox="0 0 48 48" fill="none" xmlns="http://www.w3.org/2000/svg">
<path d="M45.9981 16.0529C45.9981 13.9378 44.815 11.9995 42.7563 10.8265L28.2137 4.23169C25.3506 2.59508 21.6475 2.59694 18.8575 4.19259L4.24 10.8284C4.21375 10.8414 4.1875 10.8545 4.16312 10.8675C2.18125 11.9995 1 13.9378 1 16.0529C1 18.168 2.18312 20.1062 4.24187 21.2792L8.5 23.21V34.7222C8.5 38.3156 10.7406 41.4827 14.0763 42.6036C16.8344 43.5308 20.005 44 23.5 44C26.995 44 30.1675 43.5308 32.9238 42.6036C36.2575 41.4809 38.5 38.3138 38.5 34.7222V23.2082L42.835 21.2401C43.3131 20.9664 43.7444 20.6425 44.125 20.285V39.3471C44.125 39.861 44.545 40.2781 45.0625 40.2781C45.58 40.2781 46 39.861 46 39.3471V16.0734V16.0678C46 16.0641 46 16.0585 46 16.0547L45.9981 16.0529ZM36.6231 34.7203C36.6231 37.515 34.8944 39.9727 32.3219 40.8385C29.7587 41.7006 26.7887 42.1362 23.4981 42.1362C20.2075 42.1362 17.2375 41.7006 14.6744 40.8385C12.1019 39.9727 10.3731 37.515 10.3731 34.7203V24.0591L18.7806 27.8704C20.2225 28.6933 21.8744 29.1029 23.5169 29.1029C25.1388 29.1029 26.7512 28.7026 28.1369 27.9095L36.6213 24.0572L36.6231 34.7203ZM41.9762 19.583L27.28 26.2561C24.9794 27.5706 22.0094 27.5706 19.6375 26.217L5.095 19.624C3.68313 18.8159 2.87125 17.5145 2.87125 16.0529C2.87125 14.6043 3.66812 13.3103 5.05937 12.5022L19.7125 5.84782C22.0131 4.53145 24.9831 4.53518 27.355 5.88692L41.8975 12.4818C43.3094 13.2898 44.1213 14.5913 44.1213 16.0529C44.1213 17.5145 43.3112 18.8159 41.9762 19.583Z" fill="url(#paint0_linear_375_104)"/>
<defs>
<linearGradient id="paint0_linear_375_104" x1="22.9375" y1="3.5125" x2="23.4045" y2="48.6135" gradientUnits="userSpaceOnUse">
<stop stop-color="#CDD99D"/>
<stop offset="1" stop-color="#1E2D27"/>
</linearGradient>
</defs>
</svg>
