<svg width="48" height="48" viewBox="0 0 48 48" fill="none" xmlns="http://www.w3.org/2000/svg">
<path d="M24 44C12.9667 44 4 35.0333 4 24C4 12.9667 12.9667 4 24 4C35.0333 4 44 12.9667 44 24C44 35.0333 35.0333 44 24 44ZM24 5.66667C13.8833 5.66667 5.66667 13.8833 5.66667 24C5.66667 34.1167 13.8833 42.3333 24 42.3333C34.1167 42.3333 42.3333 34.1167 42.3333 24C42.3333 13.8833 34.1167 5.66667 24 5.66667ZM18.5667 32.3333C18.2167 32.3333 17.8667 32.2167 17.5667 32C17 31.5833 16.7667 30.8333 16.9833 30.1667L18.55 25.15L14.6 21.9333C14.05 21.4667 13.8667 20.7333 14.1 20.0833C14.3333 19.4333 14.9667 19 15.6667 19H20.6667L22.4333 14.25C22.6667 13.6167 23.2833 13.2167 24 13.2167C24.7167 13.2167 25.3333 13.6167 25.5667 14.25L27.3333 19H32.3333C33.0333 19 33.6667 19.4333 33.9 20.1C34.1333 20.75 33.95 21.5 33.4167 21.9333L29.4667 25.15L31.1 30.1167C31.3167 30.7833 31.1 31.5333 30.5333 31.95C29.9667 32.3833 29.2 32.4167 28.6167 32.0333L24.0333 29.05L19.5167 32.0667C19.2333 32.25 18.9 32.35 18.5833 32.35L18.5667 32.3333ZM15.6667 20.65L20.0333 24.2C20.3 24.4167 20.4 24.7667 20.3 25.1L18.5667 30.6667L23.5333 27.35C23.8167 27.1667 24.1667 27.1667 24.45 27.35L29.5 30.6333L27.6833 25.1167C27.5667 24.7833 27.6833 24.4333 27.95 24.2167L32.3167 20.6667H26.7333C26.3833 20.6667 26.0667 20.45 25.95 20.1167L23.9833 14.8167L22.0167 20.1167C21.9 20.45 21.5833 20.6667 21.2333 20.6667H15.65L15.6667 20.65Z" fill="url(#paint0_linear_375_107)"/>
<defs>
<linearGradient id="paint0_linear_375_107" x1="23.5" y1="4.5" x2="24" y2="48.5" gradientUnits="userSpaceOnUse">
<stop stop-color="#CDD99D"/>
<stop offset="1" stop-color="#1E2D27"/>
</linearGradient>
</defs>
</svg>
