<svg width="42" height="42" viewBox="0 0 42 42" fill="none" xmlns="http://www.w3.org/2000/svg">
<rect x="0.5" y="0.5" width="41" height="41" rx="7.5" stroke="white"/>
<g clip-path="url(#clip0_459_168)">
<path d="M30.6875 21C30.6875 15.6484 26.3516 11.3125 21 11.3125C15.6484 11.3125 11.3125 15.6484 11.3125 21C11.3125 25.8352 14.8551 29.843 19.4863 30.5703V23.8004H17.0254V21H19.4863V18.8656C19.4863 16.4379 20.9316 15.0969 23.1453 15.0969C24.2055 15.0969 25.3141 15.2859 25.3141 15.2859V17.6687H24.0922C22.8891 17.6687 22.5137 18.4156 22.5137 19.1816V21H25.2004L24.7707 23.8004H22.5137V30.5703C27.1449 29.843 30.6875 25.8352 30.6875 21Z" fill="white"/>
</g>
<defs>
<clipPath id="clip0_459_168">
<rect width="20" height="20" fill="white" transform="translate(11 11)"/>
</clipPath>
</defs>
</svg>
