<svg width="24" height="21" viewBox="0 0 24 21" fill="none" xmlns="http://www.w3.org/2000/svg">
<path d="M1.74219 4.61863H5.27085M5.27085 4.61863C5.27085 6.56746 6.85069 8.1473 8.79952 8.1473C10.7483 8.1473 12.3282 6.56746 12.3282 4.61863C12.3282 2.6698 10.7483 1.08997 8.79952 1.08997C6.85069 1.08997 5.27085 2.6698 5.27085 4.61863ZM1.74219 16.3809H8.79952M19.3855 16.3809H22.9142M19.3855 16.3809C19.3855 18.3297 17.8057 19.9095 15.8569 19.9095C13.908 19.9095 12.3282 18.3297 12.3282 16.3809C12.3282 14.432 13.908 12.8522 15.8569 12.8522C17.8057 12.8522 19.3855 14.432 19.3855 16.3809ZM15.8569 4.61863H22.9142" stroke="black" stroke-width="1.76433" stroke-linecap="round"/>
</svg>
