<svg width="14" height="16" viewBox="0 0 14 16" fill="none" xmlns="http://www.w3.org/2000/svg">
<path d="M6.2515 0.5H3.2515C3.05259 0.5 2.86182 0.579018 2.72117 0.71967C2.58052 0.860322 2.5015 1.05109 2.5015 1.25V4.109C1.81821 4.50332 1.25063 5.0704 0.855712 5.75335C0.460793 6.4363 0.252421 7.21109 0.2515 8V8.741L0.25 8.75L0.2515 8.804V14.75C0.2515 14.9489 0.330518 15.1397 0.47117 15.2803C0.611822 15.421 0.802588 15.5 1.0015 15.5H8.5015C8.70041 15.5 8.89118 15.421 9.03183 15.2803C9.17248 15.1397 9.2515 14.9489 9.2515 14.75V8C9.2505 7.21111 9.0421 6.43634 8.64719 5.75341C8.25228 5.07048 7.68474 4.50338 7.0015 4.109V1.25C7.0015 1.05109 6.92248 0.860322 6.78183 0.71967C6.64118 0.579018 6.45041 0.5 6.2515 0.5ZM4.0015 3.5V2H5.5015V3.5H4.0015ZM7.75225 14H1.75225V9.5H7.75225V14ZM1.7515 8C1.7515 6.3455 3.097 5 4.7515 5C6.406 5 7.7515 6.3455 7.7515 8H1.7515ZM7.75225 1.25H9.25225V2.75H7.75225V1.25ZM10 1.25H11.5V2.75H10V1.25ZM10 3.5H11.5V5H10V3.5ZM12.25 1.25H13.75V2.75H12.25V1.25ZM12.25 3.5H13.75V5H12.25V3.5ZM12.25 5.75H13.75V7.25H12.25V5.75Z" fill="#F1663F"/>
</svg>
