<svg width="18" height="18" viewBox="0 0 18 18" fill="none" xmlns="http://www.w3.org/2000/svg">
<path fill-rule="evenodd" clip-rule="evenodd" d="M8.02649 5.6595C8.3563 5.72169 8.6655 5.86485 8.92629 6.07611C9.18707 6.28738 9.39129 6.56013 9.52057 6.86986C9.64985 7.17958 9.70015 7.51658 9.66695 7.85056C9.63375 8.18454 9.51809 8.50504 9.33036 8.78325L14.5181 12.81C14.6871 12.7225 14.8807 12.6946 15.0674 12.731C15.2542 12.7673 15.4232 12.8657 15.547 13.0102C15.6708 13.1548 15.7421 13.3369 15.7494 13.527C15.7566 13.7172 15.6994 13.9042 15.587 14.0577C15.4745 14.2112 15.3135 14.3222 15.1301 14.3727C14.9466 14.4232 14.7514 14.4102 14.5763 14.3357C14.4012 14.2613 14.2563 14.1299 14.1653 13.9628C14.0743 13.7957 14.0424 13.6027 14.0749 13.4152L8.79861 9.3195C8.55015 9.48976 8.26684 9.60246 7.96932 9.64937C7.67179 9.69629 7.36755 9.67624 7.07875 9.59069C6.78996 9.50514 6.52388 9.35625 6.29991 9.15485C6.07594 8.95346 5.89972 8.70464 5.78409 8.42652C5.66845 8.1484 5.61631 7.84799 5.63147 7.54717C5.64663 7.24635 5.72871 6.9527 5.87172 6.68762C6.01473 6.42253 6.21507 6.19269 6.45815 6.01483C6.70123 5.83697 6.98093 5.71558 7.27686 5.6595L7.27611 2.25H8.02611V5.6595H8.02649ZM8.32611 7.65C8.32611 7.73864 8.30865 7.82642 8.27473 7.90831C8.24081 7.99021 8.19109 8.06462 8.12841 8.1273C8.06573 8.18998 7.99132 8.2397 7.90942 8.27362C7.82753 8.30754 7.73975 8.325 7.65111 8.325C7.56247 8.325 7.4747 8.30754 7.3928 8.27362C7.31091 8.2397 7.23649 8.18998 7.17381 8.1273C7.11114 8.06462 7.06142 7.99021 7.02749 7.90831C6.99357 7.82642 6.97611 7.73864 6.97611 7.65C6.97611 7.47098 7.04723 7.29929 7.17381 7.1727C7.3004 7.04612 7.47209 6.975 7.65111 6.975C7.83013 6.975 8.00182 7.04612 8.12841 7.1727C8.255 7.29929 8.32611 7.47098 8.32611 7.65Z" fill="#F1663F"/>
<path d="M10.361 7.64404C10.3611 7.12533 10.2118 6.61755 9.93097 6.18143C9.65013 5.74532 9.24963 5.39931 8.77734 5.18479V2.28979C10.3857 2.43117 11.2212 2.93779 11.9693 3.63117C12.0068 3.66642 12.0443 3.70054 12.0803 3.73354V3.73392C12.3991 4.02642 12.6526 4.25929 12.7835 4.60804L14.3712 8.83504C14.4138 8.9485 14.4282 9.07058 14.4132 9.19082C14.3983 9.31106 14.3544 9.42589 14.2853 9.52546C14.2163 9.62504 14.1241 9.70639 14.0168 9.76254C13.9094 9.8187 13.79 9.848 13.6688 9.84792H13.0572V10.725L10.2166 8.51892C10.3128 8.2374 10.3617 7.94191 10.3613 7.64442L10.361 7.64404Z" fill="#F1663F"/>
<path d="M6.52612 5.19233V2.34045C3.15487 2.84783 2.25 5.36295 2.25 6.7407C2.25 8.90333 3.63112 10.5807 4.27875 11.2531V15.7501H10.6957V13.3081H12.3056C12.4189 13.3081 12.5269 13.2826 12.6229 13.2376L8.6535 10.1551C7.99744 10.4258 7.26116 10.4273 6.60398 10.1593C5.9468 9.89134 5.42157 9.37535 5.14194 8.72303C4.86231 8.07071 4.85077 7.33452 5.10982 6.67376C5.36887 6.01299 5.87767 5.4808 6.52612 5.19233Z" fill="#F1663F"/>
</svg>
