<svg width="18" height="16" viewBox="0 0 18 16" fill="none" xmlns="http://www.w3.org/2000/svg">
<path d="M9.79989 15.108C9.87607 15.0596 11.6692 13.9141 13.4839 12.2531M9.79989 15.108L1.89013 3.97185C2.09889 3.49065 2.401 3.05426 2.77972 2.68761L2.77972 2.68762L2.78109 2.68629C3.16418 2.31399 3.60936 2.02205 4.10495 1.81846L4.10603 1.81801C4.61827 1.60689 5.1606 1.50001 5.7252 1.50001C6.50687 1.50001 7.26717 1.71233 7.92643 2.11138L7.92646 2.1114C8.08419 2.20687 8.23325 2.31124 8.37399 2.42451L9.00097 2.92911L9.62794 2.42451C9.76869 2.31124 9.91774 2.20687 10.0755 2.1114L10.0755 2.11138C10.7348 1.71233 11.4951 1.50001 12.2767 1.50002L12.279 1.50001C12.8341 1.49874 13.3837 1.6069 13.8959 1.81801L13.8972 1.81854C14.3907 2.02114 14.8399 2.31575 15.2205 2.68599L15.2213 2.68677C15.5999 3.05418 15.9023 3.49087 16.1119 3.97219M9.79989 15.108L9.33694 15.4026M9.79989 15.108H8.20009L8.66304 15.4026M13.4839 12.2531C14.5778 11.251 15.4587 10.2626 16.0994 9.31481M13.4839 12.2531L12.8084 11.5157M13.4839 12.2531L12.8087 11.5154C12.8086 11.5155 12.8085 11.5156 12.8084 11.5157M16.0994 9.31481C16.5038 8.71592 16.8222 8.12284 17.0409 7.55108C17.3047 6.8669 17.4375 6.19436 17.4375 5.54895C17.4394 4.86477 17.3007 4.19998 17.0292 3.57395L16.1118 3.97185C16.1118 3.97196 16.1119 3.97208 16.1119 3.97219M16.0994 9.31481L15.271 8.75477C15.2709 8.75488 15.2708 8.755 15.2707 8.75511M16.0994 9.31481L15.2706 8.75525M16.1119 3.97219C16.3291 4.47305 16.439 5.0014 16.4375 5.54609V5.54895C16.4375 6.05634 16.3331 6.60708 16.1079 7.19143L16.107 7.19371C15.9206 7.6808 15.6413 8.20628 15.2707 8.75511M16.1119 3.97219L15.2707 8.75511M15.2707 8.75511L15.2706 8.75525M15.2706 8.75525C14.6849 9.62169 13.8609 10.5516 12.8084 11.5157M15.2706 8.75525L8.99999 14.4317M12.8084 11.5157C11.0566 13.1191 9.31965 14.2283 9.26321 14.2642L9.26301 14.2643L8.99999 14.4317M8.99999 14.4317L8.73697 14.2643L8.72914 14.2594L8.72122 14.2545C8.72175 14.2548 8.61012 14.1844 8.40703 14.0472C8.20871 13.9133 7.93064 13.7206 7.59914 13.4785C6.93461 12.9931 6.06328 12.3145 5.19166 11.5158L5.19155 11.5157C4.13895 10.5515 3.31493 9.62147 2.72912 8.75494L8.99999 14.4317ZM8.99999 14.4317L9.19797 14.5577M8.99999 14.4317L8.80201 14.5577M9.19797 14.5577C9.07643 14.4808 8.92355 14.4808 8.80201 14.5577M9.19797 14.5577L8.99999 14.8704L8.80201 14.5577M9.19797 14.5577L9.19991 14.5589L9.00085 14.8718L9.33694 15.4026M8.80201 14.5577L8.80007 14.5589L8.99913 14.8718L8.66304 15.4026M9.33694 15.4026L8.99999 14.8731L8.66304 15.4026M9.33694 15.4026C9.13184 15.5325 8.86814 15.5325 8.66304 15.4026M1.5625 5.54895C1.5625 5.00223 1.67286 4.47284 1.8901 3.97193L1.89193 7.19093C1.66683 6.60676 1.5625 6.05619 1.5625 5.54895ZM2.729 8.75477C2.3599 8.208 2.08146 7.68175 1.89212 7.19144L2.729 8.75477Z" stroke="#778088" stroke-width="2"/>
</svg>
