<svg width="48" height="48" viewBox="0 0 48 48" fill="none" xmlns="http://www.w3.org/2000/svg">
<g clip-path="url(#clip0_678_177)">
<g clip-path="url(#clip1_678_177)">
<g clip-path="url(#clip2_678_177)">
<path d="M27.7506 8.48504V16.75C27.7506 17.1625 28.0881 17.5 28.5006 17.5C28.9131 17.5 29.2506 17.1625 29.2506 16.75V8.48504C30.6081 8.42504 31.8756 7.84004 32.8056 6.81254C33.9081 5.60504 34.3581 3.98504 34.0506 2.38004C33.9906 2.05004 33.7131 1.80254 33.3831 1.77254C31.7556 1.61504 30.1881 2.22254 29.0856 3.43754C28.8606 3.68504 28.6656 3.96254 28.4931 4.24004C28.3206 3.95504 28.1256 3.68504 27.9006 3.43754C26.7981 2.23004 25.2306 1.62254 23.6031 1.77254C23.2731 1.80254 23.0031 2.05004 22.9356 2.38004C22.6281 3.98504 23.0856 5.60504 24.1806 6.81254C25.1106 7.84004 26.3781 8.42504 27.7356 8.48504H27.7506ZM30.2031 4.44254C30.8481 3.73754 31.7181 3.31754 32.6481 3.25754C32.6781 4.19504 32.3406 5.09504 31.6956 5.80004C31.0506 6.50504 30.1806 6.92504 29.2506 6.98504C29.2281 6.04754 29.5581 5.14754 30.2031 4.43504V4.44254ZM26.7981 4.44254C27.4431 5.14754 27.7731 6.05504 27.7506 6.99254C26.8206 6.93254 25.9506 6.51254 25.3056 5.80754C24.6606 5.10254 24.3306 4.19504 24.3531 3.26504C25.2831 3.32504 26.1531 3.74504 26.7981 4.45004V4.44254Z" fill="white"/>
<path d="M25.1479 35.1175V43C25.1479 43.4124 25.4854 43.75 25.8979 43.75C26.3104 43.75 26.6479 43.4124 26.6479 43V35.1175C28.2079 35.0725 29.6704 34.4125 30.7429 33.235C31.9804 31.8775 32.4904 30.0624 32.1454 28.2625C32.0854 27.9325 31.8079 27.685 31.4779 27.655C29.6554 27.4825 27.8929 28.165 26.6554 29.5225C26.3629 29.845 26.1079 30.1974 25.8979 30.5649C25.6879 30.1974 25.4404 29.845 25.1404 29.5225C23.9029 28.165 22.1404 27.4825 20.3179 27.655C19.9879 27.685 19.7179 27.9325 19.6504 28.2625C19.3054 30.0624 19.8154 31.8775 21.0529 33.235C22.1254 34.4125 23.5879 35.0725 25.1479 35.1175ZM27.7654 30.5275C28.5454 29.6725 29.6029 29.1774 30.7429 29.1324C30.8029 30.2649 30.4129 31.3675 29.6329 32.23C28.8529 33.085 27.7954 33.58 26.6554 33.625C26.5954 32.4925 26.9854 31.39 27.7654 30.5275ZM24.0379 30.5275C24.8179 31.3825 25.2079 32.485 25.1479 33.625C24.0154 33.58 22.9504 33.085 22.1704 32.23C21.3904 31.375 21.0004 30.2724 21.0604 29.1324C22.1929 29.1774 23.2579 29.6725 24.0379 30.5275Z" fill="white"/>
<path d="M33.1582 8.75501C32.8132 10.555 33.3232 12.37 34.5607 13.7275C35.6332 14.905 37.0957 15.565 38.6557 15.61V27.2425C38.6557 27.655 38.9932 27.9925 39.4057 27.9925C39.8182 27.9925 40.1557 27.655 40.1557 27.2425V15.61C41.7157 15.565 43.1782 14.905 44.2507 13.7275C45.4882 12.37 45.9982 10.555 45.6532 8.75501C45.5932 8.42501 45.3157 8.17751 44.9857 8.14751C43.1632 7.97501 41.4007 8.65751 40.1632 10.015C39.8707 10.3375 39.6157 10.69 39.4057 11.0575C39.1957 10.69 38.9482 10.3375 38.6482 10.015C37.4107 8.65751 35.6482 7.97501 33.8257 8.14751C33.4957 8.17751 33.2257 8.42501 33.1582 8.75501ZM41.2657 11.0275C42.0457 10.1725 43.1032 9.67751 44.2432 9.63251C44.3032 10.765 43.9132 11.8675 43.1332 12.73C42.3532 13.585 41.2957 14.08 40.1557 14.125C40.0957 12.9925 40.4857 11.89 41.2657 11.0275ZM37.5382 11.0275C38.3182 11.8825 38.7082 12.985 38.6482 14.125C37.5157 14.08 36.4507 13.585 35.6707 12.73C34.8907 11.875 34.5007 10.7725 34.5607 9.63251C35.6932 9.67751 36.7582 10.1725 37.5382 11.0275Z" fill="white"/>
<path d="M8.55054 13.7425V25C8.55054 25.4125 8.88804 25.75 9.30054 25.75C9.71304 25.75 10.0505 25.4125 10.0505 25V13.7425C11.813 13.7125 13.4705 12.9775 14.678 11.65C16.0505 10.1425 16.613 8.13247 16.2305 6.12997C16.1705 5.79997 15.893 5.55247 15.563 5.52247C13.538 5.32747 11.588 6.08497 10.2155 7.59247C9.84804 7.99747 9.54804 8.43997 9.29304 8.90497C9.04554 8.43997 8.73804 7.99747 8.37054 7.59247C6.99804 6.08497 5.05554 5.32747 3.02304 5.52247C2.69304 5.55247 2.42304 5.79997 2.35554 6.12997C1.97304 8.13247 2.53554 10.1425 3.90804 11.65C5.11554 12.9775 6.77304 13.72 8.53554 13.7425H8.55054ZM11.3255 8.60497C12.2405 7.59997 13.493 7.02997 14.828 6.99997C14.9255 8.33497 14.4755 9.63247 13.5605 10.6375C12.6455 11.6425 11.393 12.2125 10.058 12.2425C9.96054 10.9075 10.4105 9.60997 11.3255 8.60497ZM3.76554 6.99997C5.10054 7.02997 6.35304 7.59997 7.26804 8.60497C8.18304 9.60997 8.63304 10.915 8.53554 12.2425C7.20054 12.2125 5.94804 11.6425 5.03304 10.6375C4.11804 9.63247 3.66804 8.32747 3.76554 6.99997Z" fill="white"/>
<path d="M7.8 20.2449C5.715 23.1024 4.5 26.5449 4.5 30.2499C4.5 40.1724 13.245 48.2499 24 48.2499C34.755 48.2499 43.5 40.1724 43.5 30.2499C43.5 26.9874 42.555 23.9199 40.8975 21.2799V24.5724C41.61 26.3424 42 28.2549 42 30.2499C42 31.7949 41.76 33.2949 41.325 34.7124L36.18 32.2074C35.9625 32.1024 35.8275 31.8849 35.8275 31.6449V27.7374C35.8275 27.2499 35.655 26.7699 35.3475 26.4099L33.06 23.6274C32.5875 23.0499 31.86 22.7574 31.1025 22.8399L25.62 23.4324C25.41 23.4549 25.2225 23.3874 25.08 23.2524L23.4825 21.6999C23.3625 21.5799 23.2875 21.4224 23.2875 21.2574C23.2875 21.0924 23.355 20.9349 23.475 20.8149C23.9925 20.3124 24.225 19.5849 24.0825 18.8799L23.5425 16.2849C23.52 16.1574 23.535 16.0299 23.5875 15.9099L24.525 13.7799C25.3575 13.8024 26.19 13.8624 26.9925 13.9899V12.4749C26.01 12.3324 25.0125 12.2574 23.9925 12.2574C18.9075 12.2574 14.2725 14.0649 10.7925 17.0199V19.0599C12.03 17.8299 13.47 16.7799 15.06 15.9399C14.5575 17.1024 14.5425 18.3999 15.015 19.5774C15.1725 19.9749 15.2475 20.3799 15.2475 20.7924C15.2475 21.4449 15.06 22.0674 14.7 22.5999L13.515 24.3699C12.945 25.2399 13.0575 26.3949 13.7925 27.1299C13.9275 27.2649 14.0025 27.4374 14.0025 27.6174C14.0025 27.8274 13.905 28.0974 13.6125 28.2399L12.795 28.6524C11.4 29.3499 10.41 30.6849 10.155 32.2299L10.0575 32.8149C9.825 34.1949 10.1925 35.6049 11.07 36.6849C11.5575 37.2924 11.8125 38.0274 11.8125 38.8149C11.8125 39.4599 11.6325 40.0824 11.295 40.6149L10.77 41.4474C7.8075 38.5074 5.985 34.5774 5.985 30.2649C5.985 27.6924 6.63 25.2549 7.785 23.0799V20.2599L7.8 20.2449ZM11.55 33.0399L11.6475 32.4549C11.8275 31.3824 12.51 30.4599 13.4775 29.9724L14.2875 29.5599C15.0375 29.1924 15.51 28.4349 15.51 27.5949C15.51 27.0174 15.2775 26.4549 14.865 26.0424C14.64 25.8174 14.6025 25.4424 14.775 25.1724L15.9525 23.4099C16.4775 22.6299 16.755 21.7149 16.755 20.7624C16.755 20.1699 16.6425 19.5774 16.4175 18.9999C16.0425 18.0774 16.1175 17.0499 16.6125 16.1799L17.3325 14.9124C19.0575 14.2824 20.91 13.8849 22.845 13.7724L22.1775 15.2949C21.9975 15.6924 21.9525 16.1274 22.035 16.5549L22.575 19.1499C22.62 19.3599 22.5525 19.5699 22.395 19.7274C21.9825 20.1324 21.75 20.6649 21.75 21.2349C21.75 21.8049 21.975 22.3374 22.395 22.7424L23.9925 24.2949C24.465 24.7524 25.125 24.9774 25.7925 24.9099L31.2825 24.3174C31.5 24.2949 31.725 24.3849 31.86 24.5499L34.155 27.3399C34.245 27.4449 34.29 27.5799 34.29 27.7299V31.6374C34.29 32.4549 34.755 33.1899 35.505 33.5424L40.8225 36.1299C39.945 38.2224 38.6175 40.1199 36.945 41.7024C36.525 41.4324 36.06 41.2449 35.55 41.1549L34.395 40.9599C33.9525 40.8849 33.5925 40.54 33.5025 40.0975C33.3375 39.2725 32.805 38.6049 32.0325 38.2524C31.2675 37.8999 30.405 37.945 29.67 38.3575L27.4125 39.6549V41.3274C27.555 41.2899 27.69 41.2224 27.8175 41.1549L30.4125 39.6624C30.7275 39.4824 31.0875 39.4675 31.4175 39.6175C31.74 39.7675 31.965 40.0449 32.0325 40.3974C32.2425 41.4399 33.09 42.2649 34.14 42.4449L35.295 42.6399C35.445 42.6625 35.5875 42.7074 35.7225 42.7599C32.5725 45.2424 28.485 46.7425 24.015 46.7425C21.9075 46.7425 19.8825 46.4049 18 45.7899L18.1275 45.4749C18.36 44.8899 18.945 44.4925 19.5825 44.4925C20.7525 44.4925 21.8025 43.84 22.32 42.805L22.5525 42.3549C22.815 41.8224 23.3475 41.4925 23.9475 41.4925H24.4125V39.9925H23.9475C22.7775 39.9925 21.7275 40.645 21.21 41.68L20.9775 42.1299C20.715 42.6625 20.1825 42.9925 19.5825 42.9925C18.3225 42.9925 17.205 43.75 16.7325 44.92L16.59 45.2649C14.8725 44.5525 13.2975 43.6 11.9175 42.4524L12.585 41.3874C13.0725 40.6149 13.335 39.715 13.335 38.785C13.335 37.6525 12.9675 36.5874 12.2625 35.7099C11.655 34.9599 11.4 33.9774 11.565 33.0249L11.55 33.0399Z" fill="white"/>
<path d="M37.8975 19.7799V17.6349C35.7225 15.5949 33.0225 14.0274 30 13.1274V14.6949C33.1125 15.7074 35.835 17.4849 37.8975 19.7799Z" fill="white"/>
</g>
</g>
</g>
<defs>
<clipPath id="clip0_678_177">
<rect width="48" height="48" fill="white"/>
</clipPath>
<clipPath id="clip1_678_177">
<rect width="48" height="48" fill="white"/>
</clipPath>
<clipPath id="clip2_678_177">
<rect width="48" height="48" fill="white"/>
</clipPath>
</defs>
</svg>
