<svg width="24" height="24" viewBox="0 0 24 24" fill="none" xmlns="http://www.w3.org/2000/svg">
<path d="M12 7.75C10.11 7.75 9.75 8.54 9.75 10V10.62H14.25V10C14.25 8.54 13.89 7.75 12 7.75Z" fill="#219653"/>
<path d="M11.9984 15.0979C12.2902 15.0979 12.57 14.9821 12.7763 14.7758C12.9825 14.5695 13.0984 14.2897 13.0984 13.9979C13.0984 13.7062 12.9825 13.4264 12.7763 13.2201C12.57 13.0138 12.2902 12.8979 11.9984 12.8979C11.7067 12.8979 11.4269 13.0138 11.2206 13.2201C11.0143 13.4264 10.8984 13.7062 10.8984 13.9979C10.8984 14.2897 11.0143 14.5695 11.2206 14.7758C11.4269 14.9821 11.7067 15.0979 11.9984 15.0979Z" fill="#219653"/>
<path d="M12 2C6.48 2 2 6.48 2 12C2 17.52 6.48 22 12 22C17.52 22 22 17.52 22 12C22 6.48 17.52 2 12 2ZM17.38 14.5C17.38 16.7 16.7 17.38 14.5 17.38H9.5C7.3 17.38 6.62 16.7 6.62 14.5V13.5C6.62 11.79 7.03 11 8.25 10.73V10C8.25 9.07 8.25 6.25 12 6.25C15.75 6.25 15.75 9.07 15.75 10V10.73C16.97 11 17.38 11.79 17.38 13.5V14.5Z" fill="#219653"/>
</svg>
