<svg width="193" height="38" viewBox="0 0 193 38" fill="none" xmlns="http://www.w3.org/2000/svg">
<path d="M0 24.9513H3.15188V26.0528C3.15188 27.4866 3.94607 28.6148 5.79029 28.6148C7.63451 28.6148 8.40383 27.5648 8.40383 25.9249V12.6031H11.6836V26.1043C11.6836 29.409 9.37746 31.6637 5.81694 31.6637C1.97392 31.6637 0.00177671 29.2811 0.00177671 26.0528V24.9513H0Z" fill="white"/>
<path d="M22.7471 12.6032H26.0269V24.2851C26.0269 26.975 27.4873 28.4603 30.1506 28.4603C32.8139 28.4603 34.301 26.9483 34.301 24.2851V12.6032H37.5808V24.4894C37.5808 28.8707 34.7114 31.6371 30.1524 31.6371C25.5934 31.6371 22.7488 28.8956 22.7488 24.4894V12.6032H22.7471Z" fill="white"/>
<path d="M48.7744 31.3296V12.6031H52.0276L60.8152 25.8734V12.6031H64.0434V31.3296H60.8152L52.0027 18.0594V31.3296H48.7744Z" fill="white"/>
<path d="M77.7215 22.1065C77.7215 26.2817 80.1289 28.5612 83.5882 28.5612C86.8413 28.5612 88.8135 26.7685 88.8135 23.7712V23.6948H83.1511V20.8006H91.8605V31.3293H89.0942L88.8899 29.1777C87.8647 30.6115 85.738 31.6118 83.2026 31.6118C77.9507 31.6118 74.2871 27.7955 74.2871 22.0301C74.2871 16.2646 78.0022 12.2955 83.6379 12.2955C87.9162 12.2955 91.2209 14.7811 91.7593 18.5975H88.3C87.7101 16.3943 85.8144 15.3692 83.5615 15.3692C79.8464 15.3692 77.7215 18.0591 77.7215 22.1065Z" fill="white"/>
<path d="M105.849 28.3075H113.688V31.3296H102.569V12.6031H105.849V28.3075Z" fill="white"/>
<path d="M157.034 31.3297V12.6032H164.182C168.435 12.6032 170.919 14.7548 170.919 18.4432C170.919 20.9537 169.741 22.7464 167.538 23.6437L171.098 31.3297H167.511L164.334 24.3366H160.312V31.3297H157.032H157.034ZM160.314 21.4406H164.182C166.257 21.4406 167.486 20.339 167.486 18.4432C167.486 16.5475 166.257 15.5223 164.182 15.5223H160.314V21.4406Z" fill="white"/>
<path d="M181.369 31.3297V12.6032H192.999V15.6254H184.649V20.442H192.129V23.3363H184.649V28.3058H192.999V31.3279H181.369V31.3297Z" fill="white"/>
<path d="M134.473 29.3856C137.728 23.263 135.77 16.54 134.483 14.3102C134.483 14.3102 130.175 21.616 134.473 29.3856Z" fill="white"/>
<path d="M150.209 0.396979C150.209 0.396979 137.169 1.51275 127.09 10.1422C114.872 21.1809 122.712 37.6048 122.712 37.6048C122.712 37.6048 124.356 36.1568 127.33 36.3007C134.327 36.6418 143.898 34.6075 147.249 28.2149C151.125 20.9251 150.509 11.2473 151.33 8.73862C152.033 5.77507 152.437 4.62199 153.92 1.99424C154.789 0.453834 150.209 0.395203 150.209 0.395203V0.396979ZM133.42 32.5003C127.55 31.7914 123.26 26.9641 124.015 20.7012C124.768 14.4667 130.141 10.5615 136.011 11.2704C141.881 11.9793 145.822 16.8742 145.269 23.0251C144.516 29.2596 139.319 33.2128 133.42 32.5003Z" fill="white"/>
</svg>
