<svg width="23" height="24" viewBox="0 0 23 24" fill="none" xmlns="http://www.w3.org/2000/svg">
<path d="M8.84698 1.4997C9.03196 1.0566 9.34927 0.67713 9.75823 0.409938C10.1672 0.142745 10.6492 0 11.1424 0C11.6356 0 12.1176 0.142745 12.5265 0.409938C12.9355 0.67713 13.2528 1.0566 13.4378 1.4997C15.2689 1.98712 16.8841 3.04392 18.0352 4.50762C19.1863 5.97132 19.8094 7.7609 19.8089 9.60124V15.2371L22.077 18.5343C22.2014 18.715 22.2729 18.925 22.2838 19.142C22.2946 19.359 22.2445 19.5748 22.1388 19.7663C22.0331 19.9578 21.8756 20.118 21.6833 20.2296C21.4911 20.3412 21.2711 20.4001 21.047 20.4001H15.4323C15.2832 21.3997 14.7675 22.3138 13.9797 22.975C13.1918 23.6361 12.1845 24 11.1424 24C10.1002 24 9.09293 23.6361 8.30507 22.975C7.51721 22.3138 7.00151 21.3997 6.85244 20.4001H1.23777C1.01363 20.4001 0.793678 20.3412 0.60139 20.2296C0.409102 20.118 0.251689 19.9578 0.145946 19.7663C0.0402023 19.5748 -0.00990477 19.359 0.000969984 19.142C0.0118447 18.925 0.0832934 18.715 0.207694 18.5343L2.47585 15.2371V9.60124C2.47585 5.73285 5.17485 2.47399 8.84698 1.4997ZM9.39173 20.4001C9.5196 20.7513 9.7567 21.0553 10.0703 21.2704C10.384 21.4855 10.7588 21.601 11.143 21.601C11.5272 21.601 11.902 21.4855 12.2156 21.2704C12.5293 21.0553 12.7664 20.7513 12.8942 20.4001H9.39173ZM11.1424 3.60187C9.50058 3.60187 7.92603 4.23395 6.76511 5.35905C5.60419 6.48415 4.952 8.01011 4.952 9.60124V15.6006C4.95205 15.8376 4.87967 16.0693 4.744 16.2665L3.55173 18.0004H18.7318L17.5395 16.2665C17.4043 16.0692 17.3323 15.8375 17.3327 15.6006V9.60124C17.3327 8.01011 16.6805 6.48415 15.5196 5.35905C14.3587 4.23395 12.7842 3.60187 11.1424 3.60187Z" fill="#1E2D27"/>
</svg>
