<svg width="48" height="48" viewBox="0 0 48 48" fill="none" xmlns="http://www.w3.org/2000/svg">
<g clip-path="url(#clip0_641_6396)">
<path d="M16.5 25.6667C20.635 25.6667 24 22.3017 24 18.1667C24 14.0317 20.635 10.6667 16.5 10.6667C12.365 10.6667 9 14.0317 9 18.1667C9 22.3017 12.365 25.6667 16.5 25.6667ZM16.5 12.3333C19.7167 12.3333 22.3333 14.95 22.3333 18.1667C22.3333 21.3833 19.7167 24 16.5 24C13.2833 24 10.6667 21.3833 10.6667 18.1667C10.6667 14.95 13.2833 12.3333 16.5 12.3333ZM29 41.5V43.1667C29 43.6267 28.6267 44 28.1667 44C27.7067 44 27.3333 43.6267 27.3333 43.1667V41.5C27.3333 35.5267 22.4733 30.6667 16.5 30.6667C10.5267 30.6667 5.66667 35.5267 5.66667 41.5V43.1667C5.66667 43.6267 5.29333 44 4.83333 44C4.37333 44 4 43.6267 4 43.1667V41.5C4 34.6067 9.60667 29 16.5 29C23.3933 29 29 34.6067 29 41.5ZM44 33.7717V34.8333C44 35.2933 43.6267 35.6667 43.1667 35.6667C42.7067 35.6667 42.3333 35.2933 42.3333 34.8333V33.7717C42.3333 28.3833 37.95 24 32.5617 24C30.3 24 28.42 24.5117 26.9767 25.5167C26.5967 25.78 26.0783 25.6883 25.8167 25.31C25.555 24.9317 25.645 24.4133 26.0233 24.15C27.7517 22.9433 29.9517 22.3333 32.5617 22.3333C38.8683 22.3333 44 27.465 44 33.7717ZM33.1667 19C37.3017 19 40.6667 15.635 40.6667 11.5C40.6667 7.365 37.3017 4 33.1667 4C29.0317 4 25.6667 7.365 25.6667 11.5C25.6667 15.635 29.0317 19 33.1667 19ZM33.1667 5.66667C36.3833 5.66667 39 8.28333 39 11.5C39 14.7167 36.3833 17.3333 33.1667 17.3333C29.95 17.3333 27.3333 14.7167 27.3333 11.5C27.3333 8.28333 29.95 5.66667 33.1667 5.66667Z" fill="url(#paint0_linear_641_6396)"/>
</g>
<defs>
<linearGradient id="paint0_linear_641_6396" x1="23.5" y1="4.5" x2="24" y2="48.5" gradientUnits="userSpaceOnUse">
<stop stop-color="#CDD99D"/>
<stop offset="1" stop-color="#1E2D27"/>
</linearGradient>
<clipPath id="clip0_641_6396">
<rect width="40" height="40" fill="white" transform="translate(4 4)"/>
</clipPath>
</defs>
</svg>
