<svg width="26" height="26" viewBox="0 0 26 26" fill="none" xmlns="http://www.w3.org/2000/svg">
<path d="M4.1504 14.7963C3.21489 15.0236 2.70312 16.2436 2.70312 16.2436C2.70312 16.2436 6.18108 16.6878 7.76857 18.4145C9.35607 20.1412 9.9405 23.481 9.9405 23.481C9.9405 23.481 11.3724 23.9262 11.3878 22.0337C11.4031 20.1412 10.6641 18.4145 10.6641 18.4145L14.0551 15.0236L17.75 22.9088C17.75 22.9088 19.1615 23.4472 19.1205 21.5383C19.0796 19.6294 17.9025 11.1771 17.9025 11.1771L20.7971 8.28157C20.9926 8.09273 21.1485 7.86685 21.2558 7.6171C21.3631 7.36735 21.4196 7.09874 21.4219 6.82693C21.4243 6.55512 21.3725 6.28557 21.2696 6.03399C21.1667 5.78242 21.0147 5.55386 20.8225 5.36165C20.6302 5.16945 20.4017 5.01745 20.1501 4.91452C19.8985 4.81159 19.629 4.7598 19.3572 4.76216C19.0854 4.76452 18.8168 4.821 18.567 4.92828C18.3173 5.03556 18.0914 5.19151 17.9025 5.38703L14.9312 8.35833C14.9312 8.35833 6.94872 6.93154 4.57004 7.13931C2.19136 7.34708 3.27528 8.4351 3.27528 8.4351L11.0991 12.1915L7.7696 15.521C7.7696 15.521 5.0859 14.5691 4.1504 14.7963Z" fill="#09100D"/>
</svg>
