<svg width="62" height="62" viewBox="0 0 62 62" fill="none" xmlns="http://www.w3.org/2000/svg">
<path d="M31 3.875C25.6352 3.875 20.3909 5.46585 15.9302 8.44639C11.4695 11.4269 7.99281 15.6633 5.93978 20.6197C3.88675 25.5762 3.34959 31.0301 4.39621 36.2918C5.44284 41.5536 8.02624 46.3868 11.8197 50.1803C15.6132 53.9738 20.4465 56.5572 25.7082 57.6038C30.9699 58.6504 36.4239 58.1133 41.3803 56.0602C46.3367 54.0072 50.5731 50.5305 53.5536 46.0698C56.5342 41.6092 58.125 36.3648 58.125 31C58.125 23.806 55.2672 16.9067 50.1803 11.8197C45.0934 6.7328 38.194 3.875 31 3.875Z" fill="white"/>
<path d="M22.7144 45C22.2597 45 21.8237 44.7893 21.5021 44.4142C21.1806 44.0391 21 43.5304 21 42.9999V18.999C21.0002 18.6582 21.075 18.3231 21.2173 18.0255C21.3596 17.7279 21.5648 17.4777 21.8133 17.2986C22.0618 17.1194 22.3455 17.0174 22.6373 17.002C22.9291 16.9867 23.2194 17.0586 23.4808 17.2109L44.0538 29.2114C44.3381 29.3777 44.5773 29.633 44.7444 29.9488C44.9115 30.2646 45 30.6284 45 30.9995C45 31.3706 44.9115 31.7344 44.7444 32.0502C44.5773 32.3659 44.3381 32.6212 44.0538 32.7875L23.4808 44.788C23.2429 44.9271 22.9805 44.9997 22.7144 45Z" fill="#F1663F"/>
</svg>
