<svg width="24" height="24" viewBox="0 0 24 24" fill="none" xmlns="http://www.w3.org/2000/svg">
<rect width="24" height="24" rx="3.27273" fill="white"/>
<path d="M5.67091 20.877C5.55795 20.9526 5.42658 20.9961 5.29084 21.0027C5.15511 21.0094 5.0201 20.9791 4.90026 20.915C4.78041 20.851 4.68023 20.7555 4.61042 20.6389C4.54061 20.5223 4.5038 20.3889 4.50391 20.253V6.01504C4.5039 5.22043 4.81915 4.45828 5.38046 3.89584C5.94178 3.3334 6.7033 3.01663 7.49791 3.01504L16.4979 2.99854C16.8919 2.99775 17.2821 3.07457 17.6464 3.22461C18.0107 3.37464 18.3419 3.59496 18.621 3.87298C18.9001 4.151 19.1218 4.48127 19.2733 4.84495C19.4247 5.20862 19.5031 5.59858 19.5039 5.99254V20.2515C19.504 20.3874 19.4672 20.5208 19.3974 20.6374C19.3276 20.754 19.2274 20.8495 19.1076 20.9135C18.9877 20.9776 18.8527 21.0079 18.717 21.0012C18.5812 20.9946 18.4499 20.9511 18.3369 20.8755L12.0039 16.6455L5.67091 20.877Z" fill="#F1663F"/>
</svg>
