<svg width="48" height="48" viewBox="0 0 48 48" fill="none" xmlns="http://www.w3.org/2000/svg">
<path d="M6.22253 6.28674C6.46381 6.04545 6.79111 5.90986 7.13235 5.90991L13.0435 5.91016C13.7541 5.91021 14.3301 6.48626 14.3301 7.19681C14.33 7.90741 13.754 8.48341 13.0434 8.48336L8.4189 8.48316V13.1077C8.4189 13.8183 7.84285 14.3943 7.1323 14.3943C6.4217 14.3943 5.8457 13.8183 5.8457 13.1077V7.19651C5.8457 6.85526 5.98124 6.52802 6.22253 6.28674Z" fill="#1E2D27"/>
<path d="M41.7756 6.28674C42.0169 6.52807 42.1524 6.85531 42.1523 7.19656L42.1521 13.1077C42.1521 13.8183 41.576 14.3943 40.8654 14.3943C40.1549 14.3943 39.5789 13.8182 39.5789 13.1076L39.5791 8.48311H34.9546C34.244 8.48311 33.668 7.90706 33.668 7.19651C33.668 6.48591 34.244 5.90991 34.9546 5.90991H40.8657C41.207 5.90991 41.5343 6.04545 41.7756 6.28674Z" fill="#1E2D27"/>
<path d="M40.8657 42.0911C41.2069 42.0911 41.5342 41.9556 41.7755 41.7143C42.0168 41.473 42.1523 41.1458 42.1523 40.8045V34.8933C42.1523 34.1827 41.5763 33.6067 40.8657 33.6067C40.1552 33.6067 39.5791 34.1827 39.5791 34.8933V39.5179L34.9546 39.5177C34.2441 39.5176 33.668 40.0936 33.668 40.8042C33.6679 41.5148 34.2439 42.0908 34.9545 42.0909L40.8657 42.0911Z" fill="#1E2D27"/>
<path d="M6.22248 41.7142C5.98119 41.4729 5.84565 41.1457 5.8457 40.8045L5.84595 34.8932C5.84595 34.1827 6.42205 33.6067 7.1326 33.6067C7.84315 33.6067 8.41915 34.1828 8.41915 34.8933L8.41895 39.5179H13.0435C13.7541 39.5179 14.3301 40.0939 14.3301 40.8045C14.3301 41.5151 13.7541 42.0911 13.0435 42.0911H7.1323C6.79106 42.0911 6.46377 41.9555 6.22248 41.7142Z" fill="#1E2D27"/>
<path fill-rule="evenodd" clip-rule="evenodd" d="M25.6516 13.6732C21.7282 13.6732 18.4674 16.3245 17.4169 19.933C13.5499 20.0058 10.4941 23.2246 10.4941 27.1292C10.4941 29.6847 11.8097 31.9407 13.796 33.2154C14.8856 33.9292 16.1695 34.3265 17.5508 34.3265H31.58C32.946 34.3265 34.2201 33.8499 35.2288 33.0527L35.2415 33.0425C36.6148 31.9287 37.5053 30.2235 37.5053 28.2881C37.5053 26.1192 36.3841 24.2069 34.6714 23.1442C34.3674 22.9556 34.2242 22.6637 34.2242 22.4469C34.2242 17.6192 30.4215 13.6732 25.6516 13.6732ZM19.8575 20.7588C20.5729 18.1301 22.8999 16.2464 25.6516 16.2464C28.9371 16.2464 31.6511 18.9762 31.6511 22.4469C31.6511 23.6902 32.3779 24.7494 33.3147 25.3306C34.2813 25.9304 34.9321 27.0215 34.9321 28.2881C34.9321 29.4095 34.4222 30.3909 33.627 31.0388C33.0529 31.4903 32.3382 31.7533 31.58 31.7533H17.5508C16.672 31.7533 15.8764 31.503 15.2023 31.0604L15.1898 31.0524C13.9212 30.2402 13.0673 28.7896 13.0673 27.1292C13.0673 24.542 15.0999 22.5049 17.5508 22.5049C18.5891 22.5049 19.5689 21.8193 19.8575 20.7588Z" fill="#1E2D27"/>
</svg>
