<svg width="24" height="24" viewBox="0 0 24 24" fill="none" xmlns="http://www.w3.org/2000/svg">
<path d="M23.6317 21.591L18.191 16.1503C19.5009 14.4065 20.208 12.284 20.2056 10.103C20.2056 4.53226 15.6733 0 10.1026 0C4.53177 0 -0.000488281 4.53226 -0.000488281 10.103C-0.000488281 15.6738 4.53177 20.2061 10.1026 20.2061C12.2835 20.2085 14.406 19.5014 16.1498 18.1915L21.5905 23.6322C21.8659 23.8783 22.2251 24.0098 22.5943 23.9994C22.9636 23.9891 23.3149 23.8378 23.5761 23.5766C23.8373 23.3154 23.9886 22.9641 23.9989 22.5948C24.0093 22.2256 23.8779 21.8664 23.6317 21.591ZM2.88609 10.103C2.88609 8.67576 3.30933 7.28053 4.10229 6.09379C4.89524 4.90705 6.0223 3.9821 7.34093 3.4359C8.65957 2.88971 10.1106 2.7468 11.5104 3.02525C12.9103 3.30369 14.1961 3.99099 15.2054 5.00023C16.2146 6.00947 16.9019 7.29532 17.1803 8.69518C17.4588 10.095 17.3159 11.546 16.7697 12.8647C16.2235 14.1833 15.2985 15.3103 14.1118 16.1033C12.9251 16.8963 11.5298 17.3195 10.1026 17.3195C8.18933 17.3172 6.35513 16.5562 5.00228 15.2033C3.64943 13.8505 2.88839 12.0163 2.88609 10.103Z" fill="#1E2D27"/>
</svg>
