<svg width="28" height="28" viewBox="0 0 28 28" fill="none" xmlns="http://www.w3.org/2000/svg">
<path d="M21.5816 4.79502L15.7599 2.61335C14.7916 2.25169 13.2049 2.25169 12.2366 2.61335L6.4149 4.79502C5.07323 5.29669 3.97656 6.88335 3.97656 8.30669V16.975C3.97656 18.3517 4.88656 20.16 5.9949 20.9884L11.0116 24.7334C12.6566 25.97 15.3632 25.97 17.0082 24.7334L22.0249 20.9884C23.1332 20.16 24.0432 18.3517 24.0432 16.975V8.30669C24.0199 6.88335 22.9232 5.29669 21.5816 4.79502ZM13.9166 8.20169C15.2932 8.20169 16.4132 9.32169 16.4132 10.6984C16.4132 12.0517 15.3516 13.1367 14.0099 13.1834H13.8932C12.4932 13.1367 11.4432 12.0517 11.4432 10.6984C11.4316 9.32169 12.5516 8.20169 13.9166 8.20169ZM16.5532 19.0867C15.8416 19.5534 14.9199 19.7984 13.9982 19.7984C13.0766 19.7984 12.1432 19.565 11.4432 19.0867C10.7782 18.6434 10.4166 18.0367 10.4049 17.3717C10.4049 16.7184 10.7782 16.0884 11.4432 15.645C12.8549 14.7117 15.1532 14.7117 16.5649 15.645C17.2299 16.0884 17.6032 16.695 17.6032 17.36C17.5916 18.0134 17.2182 18.6434 16.5532 19.0867Z" fill="black"/>
</svg>
