<svg width="18" height="18" viewBox="0 0 18 18" fill="none" xmlns="http://www.w3.org/2000/svg">
<path d="M14.6258 18C14.4759 18.0001 14.3294 17.9553 14.2052 17.8713C14.081 17.7874 13.9848 17.6681 13.929 17.529L13.296 15.9442L11.709 15.276C11.5729 15.2159 11.4575 15.1169 11.3775 14.9914C11.2974 14.866 11.2562 14.7197 11.259 14.5709C11.2618 14.4221 11.3085 14.2774 11.3932 14.1551C11.478 14.0328 11.597 13.9382 11.7353 13.8832L13.3013 13.29L13.929 11.721C13.9868 11.5839 14.0837 11.4668 14.2076 11.3845C14.3316 11.3023 14.477 11.2584 14.6258 11.2584C14.7746 11.2584 14.92 11.3023 15.044 11.3845C15.1679 11.4668 15.2648 11.5839 15.3225 11.721L15.9533 13.296L17.5283 13.9267C17.6657 13.9842 17.783 14.081 17.8656 14.205C17.9481 14.329 17.9921 14.4746 17.9921 14.6235C17.9921 14.7724 17.9481 14.918 17.8656 15.042C17.783 15.166 17.6657 15.2628 17.5283 15.3202L15.9533 15.951L15.3225 17.526C15.2673 17.6657 15.1713 17.7856 15.047 17.8701C14.9228 17.9546 14.776 17.9999 14.6258 18ZM7.50071 15.75C7.17669 15.7539 6.86012 15.6527 6.59837 15.4617C6.33663 15.2707 6.14378 15 6.0487 14.6902L4.83818 10.905L1.04089 9.63446C0.734412 9.53202 0.468426 9.33482 0.281351 9.07133C0.094276 8.80784 -0.00420296 8.49171 0.000137561 8.16859C0.00447809 7.84547 0.111413 7.5321 0.305499 7.27373C0.499584 7.01536 0.770772 6.82537 1.07989 6.7312L4.84718 5.5807L6.1162 1.79018C6.21055 1.47883 6.40572 1.20768 6.67101 1.01937C6.93631 0.831059 7.25667 0.736275 7.58171 0.749925C7.90579 0.750364 8.22101 0.855747 8.48019 1.0503C8.73937 1.24485 8.92858 1.51811 9.01948 1.82918L10.1685 5.59045L13.941 6.79795C14.2453 6.90001 14.5099 7.09509 14.6973 7.35563C14.8847 7.61617 14.9855 7.92901 14.9855 8.24996C14.9855 8.5709 14.8847 8.88374 14.6973 9.14428C14.5099 9.40482 14.2453 9.5999 13.941 9.70196L10.1617 10.911L8.95273 14.6902C8.85764 15 8.6648 15.2707 8.40305 15.4617C8.14131 15.6527 7.82474 15.7539 7.50071 15.75ZM15.3758 5.24994C15.2086 5.24994 15.0462 5.19407 14.9144 5.0912C14.7826 4.98834 14.6889 4.84438 14.6483 4.68219L14.3805 3.60969L13.3058 3.32094C13.1442 3.27753 13.0018 3.18138 12.9012 3.04776C12.8006 2.91414 12.7476 2.75072 12.7505 2.58348C12.7534 2.41624 12.8122 2.25478 12.9174 2.12476C13.0226 1.99475 13.1683 1.90364 13.3313 1.86593L14.3813 1.62218L14.6483 0.567674C14.6889 0.405503 14.7826 0.261561 14.9144 0.158711C15.0462 0.0558612 15.2086 0 15.3758 0C15.543 0 15.7054 0.0558612 15.8372 0.158711C15.969 0.261561 16.0627 0.405503 16.1033 0.567674L16.3688 1.63118L17.4323 1.89743C17.5945 1.93807 17.7384 2.03174 17.8413 2.16355C17.9441 2.29535 18 2.45775 18 2.62493C18 2.79212 17.9441 2.95451 17.8413 3.08632C17.7384 3.21813 17.5945 3.31179 17.4323 3.35244L16.3688 3.61869L16.1033 4.68219C16.0627 4.84438 15.969 4.98834 15.8372 5.0912C15.7054 5.19407 15.543 5.24994 15.3758 5.24994Z" fill="url(#paint0_linear_252_12247)"/>
<defs>
<linearGradient id="paint0_linear_252_12247" x1="7" y1="4" x2="7.5" y2="27" gradientUnits="userSpaceOnUse">
<stop stop-color="#FFE8A1"/>
<stop offset="1" stop-color="#FFC30A"/>
</linearGradient>
</defs>
</svg>
