<svg width="24" height="24" viewBox="0 0 24 24" fill="none" xmlns="http://www.w3.org/2000/svg">
<path d="M10.99 23.441L10.9903 23.4409C12.2701 23.208 13.5268 22.1803 13.5268 20.4009V14.0069V13.5069H14.0268H20.4058H20.4061C22.1873 13.5077 23.2149 12.2502 23.4479 10.9694L23.4479 10.9693C23.6808 9.68978 23.1619 8.15175 21.4955 7.52373L21.4879 7.52087L21.4804 7.51777L5.09417 0.727978C3.80461 0.245172 2.44198 0.542941 1.49555 1.49025L1.49522 1.49057C0.545135 2.43979 0.250141 3.80186 0.720877 5.058L7.54764 21.5072L7.55079 21.5148L7.5537 21.5225C8.07918 22.9166 9.26935 23.4939 10.4058 23.4939C10.6043 23.4939 10.8003 23.4756 10.99 23.441Z" fill="url(#paint0_linear_252_12249)" stroke="#FFD964"/>
<defs>
<linearGradient id="paint0_linear_252_12249" x1="14.6669" y1="5.33197" x2="14.0005" y2="35.9908" gradientUnits="userSpaceOnUse">
<stop stop-color="#FFE8A1"/>
<stop offset="1" stop-color="#FFC30A"/>
</linearGradient>
</defs>
</svg>
