<svg width="18" height="18" viewBox="0 0 18 18" fill="none" xmlns="http://www.w3.org/2000/svg">
<path d="M18 3.85715C18 3.17516 17.7291 2.52111 17.2468 2.03887C16.7646 1.55663 16.1106 1.28572 15.4286 1.28572H14.7857V0.66094C14.7857 0.315002 14.5197 0.0180827 14.1738 0.000805938C14.0869 -0.00338196 14 0.010121 13.9185 0.0404967C13.8369 0.0708723 13.7624 0.117488 13.6994 0.17752C13.6364 0.237551 13.5862 0.309748 13.552 0.389737C13.5177 0.469725 13.5 0.555838 13.5 0.642859V1.28572H4.5V0.66094C4.5 0.315002 4.23402 0.0180827 3.88808 0.000805938C3.80116 -0.00338196 3.71429 0.010121 3.63275 0.0404967C3.5512 0.0708723 3.47667 0.117488 3.41367 0.17752C3.35067 0.237551 3.30051 0.309748 3.26624 0.389737C3.23197 0.469725 3.21429 0.555838 3.21429 0.642859V1.28572H2.57143C1.88944 1.28572 1.23539 1.55663 0.753154 2.03887C0.270918 2.52111 0 3.17516 0 3.85715V4.33929C0 4.38191 0.0169324 4.42279 0.0470722 4.45293C0.0772119 4.48307 0.11809 4.5 0.160714 4.5H17.8393C17.8819 4.5 17.9228 4.48307 17.9529 4.45293C17.9831 4.42279 18 4.38191 18 4.33929V3.85715ZM0 15.4286C0 16.1106 0.270918 16.7646 0.753154 17.2468C1.23539 17.7291 1.88944 18 2.57143 18H15.4286C16.1106 18 16.7646 17.7291 17.2468 17.2468C17.7291 16.7646 18 16.1106 18 15.4286V5.90625C18 5.87428 17.9873 5.84363 17.9647 5.82102C17.9421 5.79842 17.9114 5.78572 17.8795 5.78572H0.120536C0.0885677 5.78572 0.057909 5.79842 0.0353042 5.82102C0.0126993 5.84363 0 5.87428 0 5.90625V15.4286ZM13.8214 7.07143C14.0121 7.07143 14.1986 7.12799 14.3572 7.23394C14.5157 7.3399 14.6393 7.4905 14.7123 7.6667C14.7853 7.8429 14.8044 8.03679 14.7672 8.22384C14.73 8.41089 14.6381 8.58271 14.5033 8.71757C14.3684 8.85243 14.1966 8.94427 14.0096 8.98147C13.8225 9.01868 13.6286 8.99959 13.4524 8.9266C13.2762 8.85362 13.1256 8.73002 13.0197 8.57144C12.9137 8.41287 12.8571 8.22643 12.8571 8.03572C12.8571 7.77997 12.9587 7.5347 13.1396 7.35386C13.3204 7.17302 13.5657 7.07143 13.8214 7.07143ZM13.8214 10.2857C14.0121 10.2857 14.1986 10.3423 14.3572 10.4482C14.5157 10.5542 14.6393 10.7048 14.7123 10.881C14.7853 11.0572 14.8044 11.2511 14.7672 11.4381C14.73 11.6252 14.6381 11.797 14.5033 11.9319C14.3684 12.0667 14.1966 12.1586 14.0096 12.1958C13.8225 12.233 13.6286 12.2139 13.4524 12.1409C13.2762 12.0679 13.1256 11.9443 13.0197 11.7857C12.9137 11.6272 12.8571 11.4407 12.8571 11.25C12.8571 10.9943 12.9587 10.749 13.1396 10.5681C13.3204 10.3873 13.5657 10.2857 13.8214 10.2857ZM10.6071 7.07143C10.7979 7.07143 10.9843 7.12799 11.1429 7.23394C11.3014 7.3399 11.425 7.4905 11.498 7.6667C11.571 7.8429 11.5901 8.03679 11.5529 8.22384C11.5157 8.41089 11.4239 8.58271 11.289 8.71757C11.1541 8.85243 10.9823 8.94427 10.7953 8.98147C10.6082 9.01868 10.4143 8.99959 10.2381 8.9266C10.0619 8.85362 9.91133 8.73002 9.80537 8.57144C9.69941 8.41287 9.64286 8.22643 9.64286 8.03572C9.64286 7.77997 9.74445 7.5347 9.92529 7.35386C10.1061 7.17302 10.3514 7.07143 10.6071 7.07143ZM10.6071 10.2857C10.7979 10.2857 10.9843 10.3423 11.1429 10.4482C11.3014 10.5542 11.425 10.7048 11.498 10.881C11.571 11.0572 11.5901 11.2511 11.5529 11.4381C11.5157 11.6252 11.4239 11.797 11.289 11.9319C11.1541 12.0667 10.9823 12.1586 10.7953 12.1958C10.6082 12.233 10.4143 12.2139 10.2381 12.1409C10.0619 12.0679 9.91133 11.9443 9.80537 11.7857C9.69941 11.6272 9.64286 11.4407 9.64286 11.25C9.64286 10.9943 9.74445 10.749 9.92529 10.5681C10.1061 10.3873 10.3514 10.2857 10.6071 10.2857ZM10.6071 13.5C10.7979 13.5 10.9843 13.5566 11.1429 13.6625C11.3014 13.7685 11.425 13.9191 11.498 14.0953C11.571 14.2715 11.5901 14.4654 11.5529 14.6524C11.5157 14.8395 11.4239 15.0113 11.289 15.1461C11.1541 15.281 10.9823 15.3728 10.7953 15.41C10.6082 15.4473 10.4143 15.4282 10.2381 15.3552C10.0619 15.2822 9.91133 15.1586 9.80537 15C9.69941 14.8414 9.64286 14.655 9.64286 14.4643C9.64286 14.2085 9.74445 13.9633 9.92529 13.7824C10.1061 13.6016 10.3514 13.5 10.6071 13.5ZM7.39286 10.2857C7.58357 10.2857 7.77001 10.3423 7.92859 10.4482C8.08716 10.5542 8.21076 10.7048 8.28374 10.881C8.35673 11.0572 8.37582 11.2511 8.33861 11.4381C8.30141 11.6252 8.20957 11.797 8.07471 11.9319C7.93985 12.0667 7.76803 12.1586 7.58098 12.1958C7.39393 12.233 7.20004 12.2139 7.02384 12.1409C6.84764 12.0679 6.69704 11.9443 6.59108 11.7857C6.48513 11.6272 6.42857 11.4407 6.42857 11.25C6.42857 10.9943 6.53017 10.749 6.711 10.5681C6.89184 10.3873 7.13711 10.2857 7.39286 10.2857ZM7.39286 13.5C7.58357 13.5 7.77001 13.5566 7.92859 13.6625C8.08716 13.7685 8.21076 13.9191 8.28374 14.0953C8.35673 14.2715 8.37582 14.4654 8.33861 14.6524C8.30141 14.8395 8.20957 15.0113 8.07471 15.1461C7.93985 15.281 7.76803 15.3728 7.58098 15.41C7.39393 15.4473 7.20004 15.4282 7.02384 15.3552C6.84764 15.2822 6.69704 15.1586 6.59108 15C6.48513 14.8414 6.42857 14.655 6.42857 14.4643C6.42857 14.2085 6.53017 13.9633 6.711 13.7824C6.89184 13.6016 7.13711 13.5 7.39286 13.5ZM4.17857 10.2857C4.36929 10.2857 4.55572 10.3423 4.7143 10.4482C4.87288 10.5542 4.99647 10.7048 5.06946 10.881C5.14244 11.0572 5.16154 11.2511 5.12433 11.4381C5.08712 11.6252 4.99528 11.797 4.86042 11.9319C4.72557 12.0667 4.55375 12.1586 4.36669 12.1958C4.17964 12.233 3.98576 12.2139 3.80956 12.1409C3.63336 12.0679 3.48275 11.9443 3.3768 11.7857C3.27084 11.6272 3.21429 11.4407 3.21429 11.25C3.21429 10.9943 3.31588 10.749 3.49672 10.5681C3.67756 10.3873 3.92283 10.2857 4.17857 10.2857ZM4.17857 13.5C4.36929 13.5 4.55572 13.5566 4.7143 13.6625C4.87288 13.7685 4.99647 13.9191 5.06946 14.0953C5.14244 14.2715 5.16154 14.4654 5.12433 14.6524C5.08712 14.8395 4.99528 15.0113 4.86042 15.1461C4.72557 15.281 4.55375 15.3728 4.36669 15.41C4.17964 15.4473 3.98576 15.4282 3.80956 15.3552C3.63336 15.2822 3.48275 15.1586 3.3768 15C3.27084 14.8414 3.21429 14.655 3.21429 14.4643C3.21429 14.2085 3.31588 13.9633 3.49672 13.7824C3.67756 13.6016 3.92283 13.5 4.17857 13.5Z" fill="#CDD99D"/>
</svg>
