<svg width="48" height="48" viewBox="0 0 48 48" fill="none" xmlns="http://www.w3.org/2000/svg">
<path d="M48 16C48 18.928 46.994 22.126 45.012 25.506C44.824 25.824 44.49 26 44.148 26C43.974 26 43.8 25.956 43.642 25.862C43.166 25.582 43.006 24.97 43.284 24.494C45.084 21.424 45.998 18.568 45.998 16C45.998 9.72 40.756 4 34.998 4C30.29 4 27.88 5.854 25.632 7.918L17.05 16.414C15.872 17.592 15.652 19.416 16.544 20.654C17.11 21.44 17.942 21.914 18.888 21.99C19.82 22.06 20.736 21.73 21.396 21.07L30.296 12.29C30.688 11.902 31.324 11.906 31.71 12.3C32.098 12.692 32.094 13.326 31.702 13.714L28.83 16.548L39.464 25.882C41.392 27.572 41.876 30.396 40.59 32.452C39.798 33.72 38.502 34.572 37.04 34.786C36.57 34.856 36.096 34.86 35.632 34.794C35.892 36.026 35.706 37.326 35.028 38.412C34.234 39.682 32.938 40.532 31.476 40.746C30.782 40.848 30.088 40.804 29.432 40.624C29.512 41.652 29.29 42.692 28.728 43.586C27.936 44.854 26.64 45.706 25.178 45.92C24.932 45.956 24.688 45.974 24.444 45.974C23.23 45.974 22.05 45.536 21.126 44.724L14.644 38.908C4.79 30.002 0 22.51 0 16C0 8.542 6.076 2 13 2C15.32 2 17.638 2.752 19.708 4.176C20.164 4.49 20.278 5.112 19.966 5.566C19.654 6.024 19.032 6.138 18.576 5.824C16.842 4.63 14.914 4 13.002 4C7.246 4 2.002 9.72 2.002 16C2.002 21.83 6.706 29.038 15.984 37.422L22.454 43.228C23.116 43.81 24.004 44.068 24.89 43.942C25.784 43.812 26.548 43.308 27.036 42.526C27.808 41.294 27.486 39.57 26.286 38.518L19.614 32.176C19.214 31.796 19.198 31.164 19.578 30.764C19.956 30.362 20.59 30.346 20.99 30.724L28.772 38.07C29.414 38.634 30.304 38.902 31.188 38.768C32.082 38.638 32.846 38.134 33.336 37.352C34.106 36.122 33.784 34.398 32.584 33.346L25.154 26.62C24.746 26.25 24.712 25.62 25.08 25.21C25.446 24.798 26.076 24.764 26.49 25.13L34.312 32.092C34.978 32.674 35.862 32.936 36.752 32.808C37.646 32.676 38.408 32.174 38.898 31.392C39.668 30.16 39.346 28.436 38.146 27.386L27.404 17.956L22.808 22.49C21.736 23.562 20.248 24.1 18.73 23.986C17.212 23.862 15.824 23.076 14.924 21.824C13.466 19.8 13.774 16.866 15.642 14.998L24.254 6.474C26.73 4.198 29.576 2.002 35 2.002C41.926 2.002 48 8.544 48 16.002V16Z" fill="url(#paint0_linear_375_111)"/>
<defs>
<linearGradient id="paint0_linear_375_111" x1="23.4" y1="2.54968" x2="23.9036" y2="50.9221" gradientUnits="userSpaceOnUse">
<stop stop-color="#CDD99D"/>
<stop offset="1" stop-color="#1E2D27"/>
</linearGradient>
</defs>
</svg>
