<svg width="48" height="48" viewBox="0 0 48 48" fill="none" xmlns="http://www.w3.org/2000/svg">
<g clip-path="url(#clip0_1150_1695)">
<path d="M11.7904 14.4283C5.30103 14.4283 0.0214844 19.7079 0.0214844 26.1973C0.0214844 30.2264 1.93811 34.5584 5.71821 39.073C6.27987 39.7438 6.83956 40.3654 7.37666 40.9325C4.93596 41.5986 3.47055 42.7956 3.47055 44.1925C3.47055 46.6656 7.757 48 11.79 48C15.8232 48 20.1095 46.6655 20.1095 44.1925C20.1095 42.7967 18.6446 41.5995 16.2055 40.933C17.1799 39.9043 18.2284 38.694 19.2233 37.344C19.4539 37.031 19.3872 36.5904 19.0742 36.3598C18.7615 36.1295 18.3207 36.196 18.0901 36.509C16.8889 38.139 15.5888 39.5715 14.4543 40.7093C14.3243 40.7757 14.2155 40.8811 14.1474 41.0139C13.1311 42.0126 12.2759 42.7536 11.7907 43.1584C11.3108 42.7575 10.4686 42.0266 9.46541 41.0409C9.39341 40.8831 9.26694 40.7594 9.11263 40.6904C5.92446 37.4837 1.42914 31.9434 1.42914 26.1975C1.42914 20.4843 6.07718 15.8363 11.7903 15.8363C17.5035 15.8363 22.1515 20.4843 22.1515 26.1975C22.1515 28.6924 21.3014 31.3868 19.6247 34.2058C19.4261 34.54 19.5358 34.9719 19.8699 35.1706C20.204 35.3692 20.636 35.2595 20.8347 34.9254C22.6426 31.8857 23.5592 28.9492 23.5592 26.1975C23.5593 19.7079 18.2798 14.4283 11.7904 14.4283ZM11.3596 44.6224C11.4864 44.7205 11.6384 44.7696 11.7904 44.7696C11.9424 44.7696 12.0944 44.7205 12.2212 44.6224C12.3075 44.5555 13.4837 43.6383 15.0515 42.1054C17.4255 42.5895 18.702 43.5217 18.702 44.1926C18.702 44.6937 18.0151 45.2849 16.9095 45.7354C15.5535 46.288 13.7354 46.5924 11.7901 46.5924C7.57081 46.5924 4.87831 45.171 4.87831 44.1926C4.87831 43.5207 6.15518 42.589 8.53044 42.1049C10.1069 43.6469 11.2848 44.5644 11.3596 44.6224Z" fill="white"/>
<path d="M11.7908 21.0801C10.6775 21.0801 9.6189 21.4315 8.72939 22.0965C8.41814 22.3293 8.35439 22.7704 8.58708 23.0817C8.81996 23.393 9.26105 23.4566 9.5723 23.2241C10.2165 22.7425 10.9836 22.4878 11.7907 22.4878C13.8361 22.4878 15.5 24.1518 15.5 26.1972C15.5 28.2426 13.8361 29.9066 11.7907 29.9066C9.74537 29.9066 8.08139 28.2425 8.08139 26.1972C8.08139 25.8482 8.12968 25.5031 8.22483 25.1718C8.33208 24.7982 8.11617 24.4084 7.74258 24.3011C7.36908 24.1942 6.97917 24.4098 6.87183 24.7834C6.74049 25.2412 6.67383 25.7168 6.67383 26.1972C6.67383 29.0188 8.9693 31.3143 11.7909 31.3143C14.6124 31.3143 16.908 29.0188 16.908 26.1972C16.9079 23.3756 14.6123 21.0801 11.7908 21.0801Z" fill="white"/>
<path d="M42.4654 20.4489C42.8236 20.0646 43.1925 19.6506 43.5624 19.2087C46.4928 15.7087 47.9787 12.3441 47.9787 9.20805C47.9787 4.13082 43.848 0 38.7706 0C35.0616 0 31.7313 2.20744 30.2865 5.6237C30.135 5.98173 30.3026 6.39479 30.6605 6.54611C31.0184 6.69742 31.4316 6.53007 31.5829 6.17214C32.8071 3.27788 35.6284 1.40766 38.7706 1.40766C43.0718 1.40766 46.571 4.90698 46.571 9.20814C46.571 15.0247 40.4643 20.5973 38.7704 22.0308C38.397 21.7154 37.8094 21.199 37.1205 20.5236C37.0517 20.3874 36.9407 20.2794 36.8074 20.2125C34.3771 17.7656 30.9703 13.5593 30.9703 9.20814C30.9703 8.81936 30.6553 8.50427 30.2664 8.50427C29.8777 8.50427 29.5625 8.81936 29.5625 9.20814C29.5625 12.3441 31.0483 15.7087 33.9789 19.2088C34.3487 19.6504 34.7174 20.0642 35.0753 20.4484C33.2609 20.9936 32.2134 21.9215 32.2134 23.0389C32.2134 23.9813 32.9778 24.8118 34.3661 25.3774C35.5539 25.8615 37.1181 26.1281 38.7705 26.1281C40.4229 26.1281 41.9871 25.8615 43.175 25.3774C44.563 24.8117 45.3274 23.9812 45.3274 23.0388C45.3273 21.9235 44.2791 20.9947 42.4654 20.4489ZM38.7705 24.7202C35.4387 24.7202 33.6211 23.6095 33.6211 23.0387C33.6211 22.6669 34.4479 21.9865 36.2134 21.6111C37.4013 22.767 38.283 23.4538 38.34 23.4979C38.4668 23.5961 38.6188 23.6451 38.7707 23.6451C38.9227 23.6451 39.0746 23.5961 39.2015 23.4979C39.2584 23.454 40.14 22.767 41.3279 21.6113C42.1144 21.779 42.7958 22.0247 43.2726 22.315C43.6779 22.5619 43.9199 22.8325 43.9199 23.0387C43.9197 23.6095 42.1021 24.7202 38.7705 24.7202Z" fill="white"/>
<path d="M38.7696 5.11243C36.5112 5.11243 34.6738 6.94974 34.6738 9.20828C34.6738 11.4666 36.5111 13.3039 38.7696 13.3039C41.028 13.3039 42.8653 11.4667 42.8653 9.20828C42.8653 6.94984 41.028 5.11243 38.7696 5.11243ZM38.7697 11.8962C37.2873 11.8962 36.0816 10.6904 36.0816 9.20818C36.0816 7.72599 37.2874 6.52009 38.7697 6.52009C40.2519 6.52009 41.4578 7.7259 41.4578 9.20818C41.4577 10.6904 40.2519 11.8962 38.7697 11.8962Z" fill="white"/>
<path d="M29.6395 22.335H29.3181C29.0841 22.335 28.849 22.3504 28.6189 22.3811C28.2337 22.4324 27.9628 22.7862 28.014 23.1717C28.0612 23.5256 28.3634 23.7828 28.7109 23.7828C28.7418 23.7828 28.7731 23.7809 28.8046 23.7767C28.9733 23.7542 29.1461 23.7429 29.3182 23.7429H29.6395V23.7428C30.0282 23.7428 30.3433 23.4278 30.3433 23.0389C30.3433 22.6501 30.0282 22.335 29.6395 22.335Z" fill="white"/>
<path d="M27.3133 43.4529C27.3122 43.4529 27.3111 43.4529 27.31 43.4529L26.3804 43.4571C25.9917 43.4589 25.678 43.7755 25.6797 44.1642C25.6814 44.5518 25.9963 44.8649 26.3835 44.8649C26.3846 44.8649 26.3856 44.8649 26.3868 44.8649L27.3164 44.8606C27.7051 44.8589 28.0188 44.5423 28.0171 44.1536C28.0154 43.7658 27.7006 43.4529 27.3133 43.4529Z" fill="white"/>
<path d="M30.4753 31.4521H29.5457C29.1569 31.4521 28.8418 31.7673 28.8418 32.156C28.8418 32.5448 29.1568 32.8599 29.5457 32.8599H30.4753C30.8641 32.8599 31.1792 32.5449 31.1792 32.156C31.1792 31.7673 30.8642 31.4521 30.4753 31.4521Z" fill="white"/>
<path d="M26.7464 23.769C26.4828 23.4834 26.0377 23.4654 25.7518 23.7289C25.4894 23.9708 25.2507 24.2406 25.0424 24.5306C24.8156 24.8465 24.8878 25.2862 25.2035 25.513C25.3277 25.6023 25.4714 25.6452 25.6136 25.6452C25.8325 25.6452 26.0483 25.5433 26.1858 25.3519C26.3387 25.1392 26.5138 24.9412 26.7062 24.7636C26.992 24.5001 27.0099 24.0547 26.7464 23.769Z" fill="white"/>
<path d="M31.0319 43.4358C31.0308 43.4358 31.0298 43.4358 31.0287 43.4358L30.0991 43.44C29.7104 43.4417 29.3968 43.7584 29.3984 44.1471C29.4001 44.5347 29.715 44.8478 30.1022 44.8478C30.1034 44.8478 30.1044 44.8478 30.1055 44.8478L31.035 44.8435C31.4237 44.8419 31.7374 44.5252 31.7357 44.1365C31.7339 43.7488 31.4191 43.4358 31.0319 43.4358Z" fill="white"/>
<path d="M23.5945 43.4696C23.5934 43.4696 23.5924 43.4696 23.5913 43.4696L22.6616 43.4738C22.2729 43.4756 21.9593 43.7922 21.9609 44.1809C21.9627 44.5685 22.2774 44.8816 22.6647 44.8816C22.6659 44.8816 22.6669 44.8816 22.668 44.8816L23.5976 44.8774C23.9863 44.8756 24.3 44.559 24.2983 44.1703C24.2966 43.7825 23.9818 43.4696 23.5945 43.4696Z" fill="white"/>
<path d="M27.265 30.8605C27.0439 30.721 26.8358 30.5581 26.6469 30.3765C26.3667 30.1069 25.921 30.1158 25.6517 30.3958C25.3821 30.6759 25.3909 31.1215 25.671 31.3909C25.9286 31.6387 26.2122 31.8608 26.5139 32.0511C26.6305 32.1247 26.7604 32.1598 26.8888 32.1598C27.1224 32.1598 27.3509 32.0436 27.4849 31.8313C27.6923 31.5026 27.5938 31.0679 27.265 30.8605Z" fill="white"/>
<path d="M25.5356 28.3395C25.4884 28.0969 25.4644 27.8473 25.4644 27.5976L25.4646 27.5585C25.4692 27.1698 25.1577 26.851 24.769 26.8465C24.7662 26.8464 24.7634 26.8464 24.7606 26.8464C24.3757 26.8464 24.0614 27.1562 24.0569 27.5422L24.0566 27.5977C24.0566 27.9376 24.0894 28.2778 24.1539 28.6088C24.2193 28.9449 24.5139 29.1781 24.844 29.1781C24.8885 29.1781 24.9339 29.1739 24.9792 29.165C25.3609 29.0906 25.6099 28.7211 25.5356 28.3395Z" fill="white"/>
<path d="M34.1941 31.4521H33.2644C32.8756 31.4521 32.5605 31.7673 32.5605 32.156C32.5605 32.5448 32.8756 32.8599 33.2644 32.8599H34.1941C34.5828 32.8599 34.8979 32.5449 34.8979 32.156C34.8979 31.7673 34.5828 31.4521 34.1941 31.4521Z" fill="white"/>
<path d="M45.4952 32.8853C45.224 32.6712 44.9341 32.4768 44.6334 32.3076C44.2951 32.1167 43.8656 32.2366 43.6747 32.5753C43.4839 32.914 43.6038 33.3433 43.9425 33.534C44.1797 33.6678 44.4086 33.8212 44.6226 33.9902C44.752 34.0923 44.9056 34.1417 45.0584 34.1417C45.2663 34.1417 45.4724 34.0498 45.6113 33.874C45.8523 33.5688 45.8003 33.1261 45.4952 32.8853Z" fill="white"/>
<path d="M42.8825 43.9401C42.8291 43.5551 42.4732 43.2856 42.0889 43.3392C41.8584 43.3711 41.6223 43.3879 41.3869 43.3888L41.2552 43.3894C40.8664 43.3914 40.5528 43.7081 40.5547 44.0967C40.5567 44.4843 40.8714 44.7972 41.2585 44.7972C41.2597 44.7972 41.2608 44.7972 41.2619 44.7972L41.3934 44.7965C41.6907 44.7952 41.9895 44.7741 42.2816 44.7337C42.6668 44.6805 42.9358 44.3251 42.8825 43.9401Z" fill="white"/>
<path d="M45.988 41.9608C45.7198 41.6792 45.2742 41.6684 44.993 41.9366C44.7954 42.1248 44.5817 42.299 44.3575 42.4544C44.0381 42.6758 43.9587 43.1144 44.1801 43.434C44.3169 43.6312 44.5361 43.7369 44.7592 43.7369C44.8975 43.7369 45.0372 43.6962 45.1596 43.6115C45.4433 43.4147 45.7139 43.1942 45.964 42.956C46.2455 42.6877 46.2562 42.2421 45.988 41.9608Z" fill="white"/>
<path d="M47.358 38.5424C46.9765 38.4705 46.608 38.7218 46.536 39.1038C46.4855 39.3716 46.4137 39.6374 46.3223 39.8939C46.1918 40.26 46.3828 40.6627 46.749 40.7933C46.827 40.8211 46.9069 40.8343 46.9854 40.8343C47.2745 40.8343 47.5456 40.6547 47.6484 40.3667C47.7644 40.0414 47.8556 39.7042 47.9196 39.3643C47.9913 38.9823 47.7399 38.6142 47.358 38.5424Z" fill="white"/>
<path d="M47.7765 36.2798C47.6811 35.9475 47.5587 35.6201 47.4122 35.3063C47.2478 34.954 46.8293 34.8018 46.4767 34.966C46.1245 35.1305 45.9721 35.5492 46.1365 35.9016C46.2518 36.1486 46.3484 36.4066 46.4234 36.6682C46.512 36.9769 46.7937 37.1781 47.0997 37.1781C47.1641 37.1781 47.2293 37.1692 47.2942 37.1506C47.6678 37.0433 47.8837 36.6534 47.7765 36.2798Z" fill="white"/>
<path d="M37.9128 31.4521H36.9832C36.5944 31.4521 36.2793 31.7673 36.2793 32.156C36.2793 32.5448 36.5943 32.8599 36.9832 32.8599H37.9128C38.3016 32.8599 38.6167 32.5449 38.6167 32.156C38.6167 31.7673 38.3016 31.4521 37.9128 31.4521Z" fill="white"/>
<path d="M34.7508 43.4189C34.7497 43.4189 34.7486 43.4189 34.7475 43.4189L33.8179 43.4232C33.4292 43.4248 33.1155 43.7415 33.1172 44.1302C33.119 44.5179 33.4338 44.8309 33.821 44.8309C33.8221 44.8309 33.8231 44.8309 33.8243 44.8309L34.7539 44.8267C35.1426 44.8249 35.4563 44.5083 35.4546 44.1196C35.4529 43.732 35.138 43.4189 34.7508 43.4189Z" fill="white"/>
<path d="M41.6626 31.4589C41.563 31.4544 41.4621 31.4523 41.363 31.4523H40.7019C40.3131 31.4523 39.998 31.7675 39.998 32.1561C39.998 32.5449 40.313 32.86 40.7019 32.86H41.363V32.8599C41.4425 32.8599 41.5217 32.8617 41.6003 32.8652C41.6109 32.8657 41.6215 32.8659 41.632 32.8659C42.0064 32.8659 42.318 32.571 42.3346 32.1933C42.3517 31.8048 42.0509 31.4761 41.6626 31.4589Z" fill="white"/>
<path d="M38.4695 43.4021C38.4684 43.4021 38.4674 43.4021 38.4663 43.4021L37.5366 43.4063C37.1479 43.408 36.8343 43.7247 36.8359 44.1134C36.8377 44.501 37.1525 44.8141 37.5397 44.8141C37.5409 44.8141 37.542 44.8141 37.543 44.8141L38.4726 44.8099C38.8613 44.8081 39.175 44.4915 39.1733 44.1028C39.1716 43.715 38.8568 43.4021 38.4695 43.4021Z" fill="white"/>
</g>
<defs>
<clipPath id="clip0_1150_1695">
<rect width="48" height="48" fill="white"/>
</clipPath>
</defs>
</svg>
