<svg width="33" height="33" viewBox="0 0 33 33" fill="none" xmlns="http://www.w3.org/2000/svg">
<path d="M29.0417 0.375C29.992 0.375 30.9035 0.752529 31.5755 1.42453C32.2475 2.09654 32.625 3.00797 32.625 3.95833V29.0417C32.625 29.992 32.2475 30.9035 31.5755 31.5755C30.9035 32.2475 29.992 32.625 29.0417 32.625H3.95833C3.00797 32.625 2.09654 32.2475 1.42453 31.5755C0.752529 30.9035 0.375 29.992 0.375 29.0417V3.95833C0.375 3.00797 0.752529 2.09654 1.42453 1.42453C2.09654 0.752529 3.00797 0.375 3.95833 0.375H29.0417ZM24.9208 11.7521C25.315 11.3758 25.315 10.7487 24.9208 10.3725L22.6275 8.07917C22.5388 7.98537 22.4318 7.91065 22.3132 7.85959C22.1946 7.80853 22.0668 7.78219 21.9377 7.78219C21.8086 7.78219 21.6808 7.80853 21.5622 7.85959C21.4436 7.91065 21.3367 7.98537 21.2479 8.07917L19.4562 9.87083L23.1292 13.5438L24.9208 11.7521ZM7.54167 21.7675V25.4583H11.2325L22.09 14.6008L18.3992 10.91L7.54167 21.7675Z" fill="white"/>
</svg>
