<svg width="16" height="16" viewBox="0 0 16 16" fill="none" xmlns="http://www.w3.org/2000/svg">
<path d="M3.68988 1C3.52691 1.00003 3.3684 1.05314 3.23831 1.1513C3.10822 1.24945 3.01364 1.3873 2.96888 1.544L1.11088 8.044C1.07897 8.15569 1.07345 8.27326 1.09473 8.38744C1.11602 8.50163 1.16354 8.60931 1.23354 8.702C1.30354 8.79469 1.39411 8.86985 1.49812 8.92157C1.60213 8.97328 1.71672 9.00013 1.83288 9H3.36088L2.01588 14.379C1.98909 14.4863 1.99864 14.5995 2.04303 14.7008C2.08743 14.8021 2.16415 14.8858 2.2612 14.9388C2.35826 14.9919 2.47016 15.0112 2.57939 14.9939C2.68862 14.9766 2.78902 14.9235 2.86488 14.843L5.29288 12.273C5.013 11.4514 4.93153 10.5753 5.05513 9.71619C5.17873 8.8571 5.5039 8.03946 6.00404 7.33011C6.50418 6.62077 7.1651 6.03986 7.93276 5.63488C8.70042 5.22989 9.55303 5.01234 10.4209 5H8.22288L9.34288 2.012C9.38518 1.89854 9.39938 1.77653 9.38426 1.65639C9.36915 1.53625 9.32517 1.42156 9.25609 1.32211C9.18701 1.22267 9.09488 1.14142 8.98757 1.08533C8.88026 1.02924 8.76096 0.999959 8.63988 1H3.69088H3.68988ZM10.5009 15C11.0918 15 11.677 14.8836 12.223 14.6575C12.7689 14.4313 13.265 14.0998 13.6829 13.682C14.1007 13.2641 14.4322 12.768 14.6583 12.2221C14.8845 11.6761 15.0009 11.0909 15.0009 10.5C15.0009 9.90905 14.8845 9.32389 14.6583 8.77792C14.4322 8.23196 14.1007 7.73588 13.6829 7.31802C13.265 6.90016 12.7689 6.56869 12.223 6.34254C11.677 6.1164 11.0918 6 10.5009 6C9.3074 6 8.16281 6.47411 7.3189 7.31802C6.47498 8.16193 6.00088 9.30653 6.00088 10.5C6.00088 11.6935 6.47498 12.8381 7.3189 13.682C8.16281 14.5259 9.3074 15 10.5009 15ZM12.8549 9.354L9.85488 12.354C9.76111 12.4477 9.63396 12.5004 9.50138 12.5004C9.36879 12.5004 9.24164 12.4477 9.14788 12.354L8.14788 11.354C8.10139 11.3076 8.0645 11.2525 8.03932 11.1918C8.01413 11.1311 8.00115 11.0661 8.0011 11.0004C8.00101 10.8677 8.05362 10.7404 8.14738 10.6465C8.24113 10.5526 8.36834 10.4998 8.50102 10.4997C8.63371 10.4996 8.76099 10.5522 8.85488 10.646L9.50088 11.293L12.1469 8.646C12.2408 8.55211 12.3681 8.49937 12.5009 8.49937C12.6337 8.49937 12.761 8.55211 12.8549 8.646C12.9488 8.73989 13.0015 8.86722 13.0015 9C13.0015 9.13278 12.9488 9.26011 12.8549 9.354Z" fill="#F1663F"/>
</svg>
