<svg width="48" height="48" viewBox="0 0 48 48" fill="none" xmlns="http://www.w3.org/2000/svg">
<g clip-path="url(#clip0_375_98)">
<path d="M34.1256 6.51392L37.4676 0.513922C37.7336 0.0299219 38.3456 -0.142078 38.8276 0.127922C39.3096 0.395922 39.4836 1.00392 39.2136 1.48792L35.8716 7.48792C35.6896 7.81592 35.3476 8.00192 34.9976 8.00192C34.8316 8.00192 34.6656 7.95992 34.5116 7.87592C34.0296 7.60792 33.8556 6.99792 34.1256 6.51392ZM47.9156 10.5699C47.6916 10.0639 47.1036 9.83792 46.5976 10.0559L40.5976 12.6979C40.0916 12.9199 39.8616 13.5119 40.0836 14.0159C40.2496 14.3919 40.6156 14.6139 40.9996 14.6139C41.1336 14.6139 41.2716 14.5859 41.4016 14.5299L47.4016 11.8879C47.9076 11.6659 48.1376 11.0739 47.9156 10.5699ZM12.1256 7.48592C12.3076 7.81392 12.6496 7.99992 12.9996 7.99992C13.1656 7.99992 13.3316 7.95792 13.4856 7.87392C13.9676 7.60592 14.1416 6.99792 13.8716 6.51392L10.5316 0.513922C10.2636 0.0299219 9.65361 -0.140078 9.17161 0.127922C8.68961 0.395922 8.51561 1.00392 8.78561 1.48792L12.1276 7.48792L12.1256 7.48592ZM7.40161 12.6979L1.40161 10.0559C0.899614 9.83992 0.307614 10.0619 0.0836136 10.5699C-0.138386 11.0739 0.0916137 11.6659 0.597614 11.8879L6.59761 14.5299C6.72761 14.5859 6.86561 14.6139 6.99961 14.6139C7.38361 14.6139 7.74961 14.3919 7.91561 14.0159C8.13761 13.5119 7.90761 12.9199 7.40161 12.6979ZM39.9996 23.9979C39.9996 29.1639 37.4816 34.0379 33.2636 37.0359C32.4716 37.5999 31.9996 38.5079 31.9996 39.4659V41.9999C31.9996 45.3079 29.3076 47.9999 25.9996 47.9999H21.9996C18.6336 47.9999 15.9996 45.2459 15.9996 41.7279V39.4639C15.9996 38.5079 15.5216 37.5959 14.7196 37.0259C9.80761 33.5219 7.29961 27.6139 8.17361 21.6039C9.19961 14.5619 15.0876 8.88392 22.1796 8.09992C26.7936 7.58792 31.2336 8.99992 34.6696 12.0739C38.0556 15.1079 39.9996 19.4519 39.9996 23.9979ZM29.9996 41.9979V39.9979H17.9996V41.7259C17.9996 44.1619 19.7176 45.9979 21.9996 45.9979H25.9996C28.2056 45.9979 29.9996 44.2039 29.9996 41.9979ZM37.9996 23.9979C37.9996 20.0219 36.2996 16.2179 33.3356 13.5639C30.7336 11.2359 27.4736 9.99792 24.0196 9.99792C23.4836 9.99792 22.9436 10.0279 22.3976 10.0879C16.1976 10.7719 11.0476 15.7359 10.1536 21.8919C9.38761 27.1559 11.5816 32.3319 15.8796 35.3959C16.7876 36.0439 17.4216 36.9699 17.7456 37.9979H22.9996V27.8959C20.7196 27.4319 18.9996 25.4119 18.9996 22.9979C18.9996 22.4459 19.4476 21.9979 19.9996 21.9979C20.5516 21.9979 20.9996 22.4459 20.9996 22.9979C20.9996 24.6519 22.3456 25.9979 23.9996 25.9979C25.6536 25.9979 26.9996 24.6519 26.9996 22.9979C26.9996 22.4459 27.4476 21.9979 27.9996 21.9979C28.5516 21.9979 28.9996 22.4459 28.9996 22.9979C28.9996 25.4139 27.2796 27.4319 24.9996 27.8959V37.9979H30.2516C30.5736 36.9719 31.2016 36.0479 32.1036 35.4059C35.7976 32.7819 37.9996 28.5179 37.9996 23.9979Z" fill="url(#paint0_linear_375_98)"/>
</g>
<defs>
<linearGradient id="paint0_linear_375_98" x1="23.3996" y1="0.60024" x2="23.9996" y2="53.3999" gradientUnits="userSpaceOnUse">
<stop stop-color="#CDD99D"/>
<stop offset="1" stop-color="#1E2D27"/>
</linearGradient>
<clipPath id="clip0_375_98">
<rect width="48" height="48" fill="white"/>
</clipPath>
</defs>
</svg>
