<svg width="42" height="42" viewBox="0 0 42 42" fill="none" xmlns="http://www.w3.org/2000/svg">
<rect x="0.5" y="0.5" width="41" height="41" rx="7.5" stroke="white"/>
<g clip-path="url(#clip0_459_172)">
<path d="M21.0047 15.8845C17.8815 15.8845 15.3623 18.3894 15.3623 21.4949C15.3623 24.6003 17.8815 27.1052 21.0047 27.1052C24.1279 27.1052 26.6471 24.6003 26.6471 21.4949C26.6471 18.3894 24.1279 15.8845 21.0047 15.8845ZM21.0047 25.1423C18.9864 25.1423 17.3364 23.5066 17.3364 21.4949C17.3364 19.4832 18.9815 17.8474 21.0047 17.8474C23.0279 17.8474 24.673 19.4832 24.673 21.4949C24.673 23.5066 23.023 25.1423 21.0047 25.1423ZM28.194 15.655C28.194 16.3826 27.6047 16.9636 26.8779 16.9636C26.1462 16.9636 25.5618 16.3777 25.5618 15.655C25.5618 14.9324 26.1511 14.3464 26.8779 14.3464C27.6047 14.3464 28.194 14.9324 28.194 15.655ZM31.931 16.9832C31.8475 15.2302 31.4449 13.6775 30.1533 12.3982C28.8667 11.1189 27.3051 10.7185 25.5422 10.6306C23.7252 10.5281 18.2792 10.5281 16.4623 10.6306C14.7042 10.7136 13.1426 11.114 11.8511 12.3933C10.5596 13.6726 10.1618 15.2253 10.0734 16.9783C9.97031 18.7849 9.97031 24.2 10.0734 26.0066C10.1569 27.7595 10.5596 29.3123 11.8511 30.5916C13.1426 31.8708 14.6993 32.2712 16.4623 32.3591C18.2792 32.4617 23.7252 32.4617 25.5422 32.3591C27.3051 32.2761 28.8667 31.8757 30.1533 30.5916C31.44 29.3123 31.8426 27.7595 31.931 26.0066C32.0342 24.2 32.0342 18.7898 31.931 16.9832ZM29.5837 27.9451C29.2007 28.9021 28.4592 29.6394 27.4917 30.0251C26.0431 30.5964 22.6056 30.4646 21.0047 30.4646C19.4038 30.4646 15.9614 30.5916 14.5176 30.0251C13.5551 29.6443 12.8136 28.907 12.4257 27.9451C11.8511 26.5046 11.9837 23.0867 11.9837 21.4949C11.9837 19.9031 11.856 16.4802 12.4257 15.0447C12.8087 14.0876 13.5502 13.3503 14.5176 12.9646C15.9663 12.3933 19.4038 12.5251 21.0047 12.5251C22.6056 12.5251 26.048 12.3982 27.4917 12.9646C28.4542 13.3455 29.1958 14.0828 29.5837 15.0447C30.1583 16.4851 30.0257 19.9031 30.0257 21.4949C30.0257 23.0867 30.1583 26.5095 29.5837 27.9451Z" fill="white"/>
</g>
<defs>
<clipPath id="clip0_459_172">
<rect width="22" height="25" fill="white" transform="translate(10 9)"/>
</clipPath>
</defs>
</svg>
