<svg width="42" height="42" viewBox="0 0 42 42" fill="none" xmlns="http://www.w3.org/2000/svg">
<rect x="0.5" y="0.5" width="41" height="41" rx="7.5" stroke="white"/>
<path d="M28.7143 11.375H13.2817C12.5746 11.375 12 11.998 12 12.7629V29.2371C12 30.002 12.5746 30.625 13.2817 30.625H28.7143C29.4214 30.625 30 30.002 30 29.2371V12.7629C30 11.998 29.4214 11.375 28.7143 11.375ZM17.4402 27.875H14.7723V18.6883H17.4442V27.875H17.4402ZM16.1062 17.4336C15.2504 17.4336 14.5594 16.6902 14.5594 15.7793C14.5594 14.8684 15.2504 14.125 16.1062 14.125C16.958 14.125 17.6531 14.8684 17.6531 15.7793C17.6531 16.6945 16.9621 17.4336 16.1062 17.4336ZM27.4406 27.875H24.7728V23.4062C24.7728 22.3406 24.7527 20.9699 23.3866 20.9699C21.9964 20.9699 21.7835 22.1301 21.7835 23.3289V27.875H19.1156V18.6883H21.675V19.943H21.7112C22.0687 19.2211 22.9406 18.4605 24.2384 18.4605C26.9384 18.4605 27.4406 20.3641 27.4406 22.8391V27.875Z" fill="white"/>
</svg>
