<svg width="20" height="20" viewBox="0 0 20 20" fill="none" xmlns="http://www.w3.org/2000/svg">
<path d="M9.99844 11.1917C10.3399 11.1917 10.678 11.1244 10.9934 10.9938C11.3089 10.8631 11.5955 10.6716 11.8369 10.4302C12.0783 10.1887 12.2699 9.90212 12.4005 9.58668C12.5312 9.27123 12.5984 8.93314 12.5984 8.5917C12.5984 8.25026 12.5312 7.91217 12.4005 7.59672C12.2699 7.28128 12.0783 6.99465 11.8369 6.75322C11.5955 6.51179 11.3089 6.32027 10.9934 6.18961C10.678 6.05895 10.3399 5.9917 9.99844 5.9917C9.30887 5.9917 8.64755 6.26563 8.15996 6.75322C7.67237 7.24082 7.39844 7.90214 7.39844 8.5917C7.39844 9.28126 7.67237 9.94258 8.15996 10.4302C8.64755 10.9178 9.30887 11.1917 9.99844 11.1917V11.1917Z" stroke="#CDD99D" stroke-width="1.5"/>
<path d="M3.0148 7.07484C4.65646 -0.141828 15.3481 -0.133494 16.9815 7.08317C17.9398 11.3165 15.3065 14.8998 12.9981 17.1165C12.1915 17.8945 11.1146 18.3292 9.99396 18.3292C8.87333 18.3292 7.7964 17.8945 6.9898 17.1165C4.6898 14.8998 2.05646 11.3082 3.0148 7.07484V7.07484Z" stroke="#CDD99D" stroke-width="1.5"/>
</svg>
